<?xml version="1.0" encoding="utf-8"?>
<!-- Generator: Adobe Illustrator 17.0.0, SVG Export Plug-In . SVG Version: 6.00 Build 0)  -->
<!DOCTYPE svg PUBLIC "-//W3C//DTD SVG 1.1//EN" "http://www.w3.org/Graphics/SVG/1.1/DTD/svg11.dtd">
<svg version="1.1" id="Capa_1" xmlns="http://www.w3.org/2000/svg" xmlns:xlink="http://www.w3.org/1999/xlink" x="0px" y="0px"
	 width="1269.821px" height="1225.776px" viewBox="0 0 1269.821 1225.776" enable-background="new 0 0 1269.821 1225.776"
	 xml:space="preserve">
<g>
	<g>
		<path fill="none" stroke="#FFFFFF" stroke-width="3" stroke-miterlimit="10" d="M1159.629,586.712
			c0,240.115-173.098,449.387-441.012,505.198c-209.315,44.621-429.793-13.946-588.832-142.41
			c136.797,200.977,404.655,312.6,658.594,259.544c304.243-64.218,468.934-340.379,374.006-619.436
			C1159.629,589.608,1159.629,589.608,1159.629,586.712"/>
		<path fill="none" stroke="#FFFFFF" stroke-width="3" stroke-miterlimit="10" d="M358.558,1058.362
			C160.435,921.574,85.161,662.143,188.356,410.977C269.338,212.896,442.295,64.919,634.88,3.597
			c-242.72,0-485.608,158.971-586.076,398.974C-65.583,687.279,68.318,980.31,353.047,1058.362H358.558z"/>
		<path fill="none" stroke="#FFFFFF" stroke-width="3" stroke-miterlimit="10" d="M422.821,134.67
			c217.61-97.677,479.985-25.108,641.891,198.137c125.578,173.086,161.795,396.331,111.631,594.44
			c125.578-206.544,119.926-496.763-30.677-706.063C964.273-29.98,643.327-69.091,428.36,131.915
			C425.576,131.915,422.821,134.67,422.821,134.67"/>
	</g>
</g>
</svg>
