<?xml version="1.0" encoding="UTF-8" standalone="no"?>
<svg
   xmlns:dc="http://purl.org/dc/elements/1.1/"
   xmlns:cc="http://creativecommons.org/ns#"
   xmlns:rdf="http://www.w3.org/1999/02/22-rdf-syntax-ns#"
   xmlns:svg="http://www.w3.org/2000/svg"
   xmlns="http://www.w3.org/2000/svg"
   xml:space="preserve"
   style="enable-background:new 0 0 1269.8 1225.8;"
   viewBox="0 0 1269.8 1225.8"
   y="0px"
   x="0px"
   id="Capa_1"
   version="1.1"><metadata
     id="metadata3476"><rdf:RDF><cc:Work
         rdf:about=""><dc:format>image/svg+xml</dc:format><dc:type
           rdf:resource="http://purl.org/dc/dcmitype/StillImage" /><dc:title></dc:title></cc:Work></rdf:RDF></metadata><defs
     id="defs3474" /><style
     id="style3427"
     type="text/css">
	.st0{fill:none;stroke:#FFFFFF;stroke-width:3;stroke-miterlimit:10;}
	.st1{fill:none;stroke:url(#path4274_2_);stroke-width:3;stroke-miterlimit:10;}
	.st2{fill:none;stroke:url(#path4285_2_);stroke-width:3;stroke-miterlimit:10;}
	.st3{fill:none;stroke:url(#path4302_2_);stroke-width:3;stroke-miterlimit:10;}
</style><g
     id="g3429"><g
       id="g3431"><path
         style="fill:none;stroke:#ffffff;stroke-width:3;stroke-miterlimit:10"
         id="path3433"
         d="M 718.6,1091.9 C 530.73958,1128.843 288.8,1078 129.8,949.5 c 136.8,201 404.42928,313.4121 658.32928,260.3121 C 1096.6607,1132.6178 1258.2728,886.1159 1160.4707,583.44445 1137.0809,862.75581 991.60466,1026.9116 718.6,1091.9 Z"
         class="st0" /><path
         id="path3435"
         d="M358.6,1058.4C160.4,921.6,85.2,662.1,188.4,411c81-198.1,253.9-346.1,446.5-407.4    c-242.7,0-485.6,159-586.1,399C-65.6,687.3,68.3,980.3,353,1058.4H358.6z"
         class="st0" /><path
         id="path3437"
         d="M422.8,134.7c217.6-97.7,480-25.1,641.9,198.1c125.6,173.1,161.8,396.3,111.6,594.4    c125.6-206.5,119.9-496.8-30.7-706.1C964.3-30,643.3-69.1,428.4,131.9C425.6,131.9,422.8,134.7,422.8,134.7"
         class="st0" /></g></g><g
     id="g4267_1_"><linearGradient
       gradientTransform="matrix(1 0 0 -1 0 1227.0238)"
       y2="321.8127"
       x2="121.396"
       y1="321.8127"
       x1="1189.1128"
       gradientUnits="userSpaceOnUse"
       id="path4274_2_"><stop
         id="stop3441"
         style="stop-color:#0766AD"
         offset="0" /><stop
         id="stop3443"
         style="stop-color:#3FA9F5"
         offset="1" /></linearGradient><path
       style="fill:none;stroke:url(#path4274_2_);stroke-width:3;stroke-miterlimit:10"
       d="M 1160.5541,584.38828 C 1133.8648,871.40139 987.33026,1015.016 738.39987,1088.0418 529.09987,1132.6418 287.4,1077.7 128.4,949.5 c 136.9,201 403.73858,313.8123 657.63858,260.9123 236.34162,-58.2082 484.93112,-258.1837 374.51552,-626.02402 z"
       class="st1"
       id="path4274_1_" /><linearGradient
       gradientTransform="matrix(1 0 0 -1 0 1227.0238)"
       y2="757.7582"
       x2="1264.9209"
       y1="757.7582"
       x1="414.5119"
       gradientUnits="userSpaceOnUse"
       id="path4285_2_"><stop
         id="stop3447"
         style="stop-color:#603D37"
         offset="2.247200e-02" /><stop
         id="stop3449"
         style="stop-color:#DA4D1D"
         offset="0.427" /><stop
         id="stop3451"
         style="stop-color:#EA7624"
         offset="0.736" /><stop
         id="stop3453"
         style="stop-color:#F7BE29"
         offset="1" /></linearGradient><path
       style="fill:none;stroke:url(#path4285_2_);stroke-width:3;stroke-miterlimit:10"
       d="M 1064.1209,332.7 C 1189.8209,505.8 1225,728.9 1174.7,927.1 1300.4,720.6 1294.6,430.2 1143.9,221.2 962.8,-29.8 641.9,-68.9 426.7,131.8 716.90356,19.407608 943.61155,167.61272 1064.1209,332.7 Z"
       class="st2"
       id="path4285_1_" /><linearGradient
       gradientTransform="matrix(1 0 0 -1 0 1227.0238)"
       y2="696.0189"
       x2="642.8652"
       y1="696.0189"
       x1="4.9001"
       gradientUnits="userSpaceOnUse"
       id="path4302_2_"><stop
         id="stop3457"
         style="stop-color:#2C9400"
         offset="2.247200e-02" /><stop
         id="stop3459"
         style="stop-color:#60AC2E"
         offset="0.1064" /><stop
         id="stop3461"
         style="stop-color:#8DC055"
         offset="0.1901" /><stop
         id="stop3463"
         style="stop-color:#AFD074"
         offset="0.2701" /><stop
         id="stop3465"
         style="stop-color:#C8DC89"
         offset="0.3454" /><stop
         id="stop3467"
         style="stop-color:#D7E396"
         offset="0.4144" /><stop
         id="stop3469"
         style="stop-color:#DCE59B"
         offset="0.4709" /></linearGradient><path
       d="M357.2,1058.5C159.1,921.6,83.8,662.3,187,410.9C267.8,212.8,440.9,65,633.3,3.5   c-242.7,0-485.4,159-586,399.1c-114.4,284.7,19.6,577.7,304.2,655.9C354.3,1058.5,354.3,1058.5,357.2,1058.5z"
       class="st3"
       id="path4302_1_" /></g></svg>