<?xml version="1.0" encoding="utf-8"?>
<!-- Generator: Adobe Illustrator 22.1.0, SVG Export Plug-In . SVG Version: 6.00 Build 0)  -->
<svg version="1.1"
	 id="Capa_1" inkscape:version="0.91 r13725" sodipodi:docname="sonata_powered_by_5gtango_logo.svg" xmlns:cc="http://creativecommons.org/ns#" xmlns:dc="http://purl.org/dc/elements/1.1/" xmlns:inkscape="http://www.inkscape.org/namespaces/inkscape" xmlns:rdf="http://www.w3.org/1999/02/22-rdf-syntax-ns#" xmlns:sodipodi="http://sodipodi.sourceforge.net/DTD/sodipodi-0.dtd" xmlns:svg="http://www.w3.org/2000/svg"
	 xmlns="http://www.w3.org/2000/svg" xmlns:xlink="http://www.w3.org/1999/xlink" x="0px" y="0px" viewBox="0 0 319.5 138.2"
	 style="enable-background:new 0 0 319.5 138.2;" xml:space="preserve">
<style type="text/css">
	.st0{fill:url(#path4274_2_);}
	.st1{fill:url(#path4285_2_);}
	.st2{fill:url(#path4302_2_);}
	.st3{fill:none;stroke:#2C2B66;stroke-width:2;stroke-miterlimit:10;}
	.st4{fill:none;stroke:#BBD041;stroke-width:3;stroke-miterlimit:10;}
	.st5{fill:none;stroke:#5E5E5E;stroke-width:2;stroke-miterlimit:10;}
	.st6{fill:none;stroke:#E63637;stroke-width:2;stroke-miterlimit:10;}
	.st7{fill:none;stroke:url(#circle4329_1_);stroke-width:3;stroke-miterlimit:10;}
	.st8{fill:#2C2B66;}
	.st9{fill:#782121;}
	.st10{fill:#D40000;}
	.st11{font-family:'Calibri';}
	.st12{font-size:41.25px;}
	.st13{font-size:17.5px;}
	.st14{fill:none;stroke:url(#path4274_3_);stroke-width:3;stroke-miterlimit:10;}
	.st15{fill:none;stroke:url(#path4285_3_);stroke-width:3;stroke-miterlimit:10;}
	.st16{fill:none;stroke:url(#path4302_3_);stroke-width:3;stroke-miterlimit:10;}
</style>
<g id="g4267">
	
		<linearGradient id="path4274_2_" gradientUnits="userSpaceOnUse" x1="87.1603" y1="5780.6851" x2="49.2" y2="5780.6851" gradientTransform="matrix(1 0 0 1 0 -5715.9995)">
		<stop  offset="0" style="stop-color:#0766AD"/>
		<stop  offset="1" style="stop-color:#3FA9F5"/>
	</linearGradient>
	<path id="path4274" class="st0" d="M86.1,53.3c0,8.6-6.2,16.1-15.8,18.1c-7.5,1.6-15.4-0.5-21.1-5.1c4.9,7.2,14.5,11.2,23.6,9.3
		c10.9-2.3,16.8-12.2,13.4-22.2C86.1,53.4,86.1,53.4,86.1,53.3z"/>
	
		<linearGradient id="path4285_2_" gradientUnits="userSpaceOnUse" x1="59.7" y1="5764.9512" x2="89.8361" y2="5764.9512" gradientTransform="matrix(1 0 0 1 0 -5715.9995)">
		<stop  offset="2.247200e-02" style="stop-color:#603D37"/>
		<stop  offset="0.427" style="stop-color:#D54D1D"/>
		<stop  offset="0.736" style="stop-color:#EA7624"/>
		<stop  offset="1" style="stop-color:#F7BE29"/>
	</linearGradient>
	<path id="path4285" class="st1" d="M59.7,37.1c7.8-3.5,17.2-0.9,23,7.1c4.5,6.2,5.8,14.2,4,21.3c4.5-7.4,4.3-17.8-1.1-25.3
		c-6.5-9-18-10.4-25.7-3.2C59.8,37,59.7,37.1,59.7,37.1z"/>
	
		<linearGradient id="path4302_2_" gradientUnits="userSpaceOnUse" x1="44.8877" y1="5767.2998" x2="67.3502" y2="5767.2998" gradientTransform="matrix(1 0 0 1 0 -5715.9995)">
		<stop  offset="2.247200e-02" style="stop-color:#2C9400"/>
		<stop  offset="0.1064" style="stop-color:#60AC2E"/>
		<stop  offset="0.1901" style="stop-color:#8DC055"/>
		<stop  offset="0.2701" style="stop-color:#AFD074"/>
		<stop  offset="0.3454" style="stop-color:#C8DC89"/>
		<stop  offset="0.4144" style="stop-color:#D7E396"/>
		<stop  offset="0.4709" style="stop-color:#DCE59B"/>
	</linearGradient>
	<path id="path4302" class="st2" d="M57.4,70.2C50.3,65.3,47.6,56,51.3,47c2.9-7.1,9.1-12.4,16-14.6c-8.7,0-17.4,5.7-21,14.3
		C42.2,56.9,47,67.4,57.2,70.2C57.3,70.2,57.3,70.2,57.4,70.2z"/>
</g>
<g id="g4304">
	<line id="line4306" class="st3" x1="269.6" y1="66" x2="290.5" y2="50.1"/>
	<line id="line4308" class="st3" x1="300.9" y1="53.9" x2="306.9" y2="77.1"/>
	<line id="line4310" class="st3" x1="294.1" y1="16.2" x2="297.2" y2="33.7"/>
	<line id="line4312" class="st3" x1="288.7" y1="40.9" x2="272.6" y2="36.6"/>
	<line id="line4314" class="st3" x1="270.8" y1="31.2" x2="289.1" y2="14.5"/>
	
		<ellipse id="circle4316" transform="matrix(0.3417 -0.9398 0.9398 0.3417 105.605 294.5907)" class="st4" cx="263.1" cy="71.9" rx="8.7" ry="8.7"/>
	<circle id="circle4318" class="st5" cx="267.6" cy="35.3" r="5.2"/>
	<circle id="circle4320" class="st6" cx="293.1" cy="11.2" r="5.2"/>
	<circle id="circle4322" class="st5" cx="306.9" cy="82.3" r="5.2"/>
	
		<linearGradient id="circle4329_1_" gradientUnits="userSpaceOnUse" x1="288.2506" y1="5759.8999" x2="308.4073" y2="5759.8999" gradientTransform="matrix(1 0 0 1 0 -5715.9995)">
		<stop  offset="0" style="stop-color:#0766AD"/>
		<stop  offset="1" style="stop-color:#3FA9F5"/>
	</linearGradient>
	<circle id="circle4329" class="st7" cx="298.3" cy="43.9" r="8.6"/>
</g>
<g id="g4331">
	<path id="path4333" class="st8" d="M37.7,40.3c-0.3,0.6-0.8,0.9-1.5,0.9c-0.4,0-0.9-0.1-1.4-0.4c-0.5-0.3-1.1-0.6-1.9-1
		c-0.7-0.4-1.6-0.7-2.7-1c-1-0.3-2.3-0.5-3.7-0.5c-1.2,0-2.3,0.2-3.3,0.5s-1.8,0.7-2.5,1.3c-0.7,0.5-1.2,1.2-1.6,1.9
		s-0.5,1.5-0.5,2.3c0,1.1,0.3,1.9,0.9,2.6c0.6,0.7,1.4,1.3,2.4,1.8s2.1,1,3.4,1.4s2.6,0.8,3.9,1.3s2.6,0.9,3.9,1.5
		c1.3,0.5,2.4,1.2,3.4,2s1.8,1.8,2.4,3c0.6,1.2,0.9,2.6,0.9,4.2c0,1.9-0.3,3.7-1,5.3c-0.7,1.6-1.7,3-3,4.2s-3,2.1-4.9,2.8
		s-4.1,1-6.7,1c-2.9,0-5.5-0.5-7.8-1.4s-4.3-2.1-5.9-3.6l1.7-2.8c0.2-0.4,0.5-0.6,0.8-0.8c0.3-0.2,0.7-0.3,1.2-0.3s1,0.2,1.5,0.6
		c0.5,0.4,1.2,0.8,2,1.3s1.7,0.9,2.8,1.3c1.1,0.4,2.5,0.6,4.1,0.6c1.4,0,2.6-0.2,3.7-0.5c1.1-0.4,1.9-0.9,2.6-1.5s1.2-1.3,1.6-2.2
		c0.3-0.8,0.5-1.7,0.5-2.6c0-1.1-0.3-2.1-0.9-2.8c-0.6-0.7-1.4-1.4-2.4-1.9s-2.1-1-3.4-1.4s-2.6-0.8-3.9-1.2s-2.7-0.9-3.9-1.5
		c-1.3-0.6-2.4-1.3-3.4-2.1s-1.8-1.9-2.4-3.1c-0.6-1.2-0.9-2.7-0.9-4.5c0-1.6,0.3-3.1,1-4.5c0.7-1.5,1.6-2.7,2.8-3.8s2.8-2,4.6-2.6
		c1.8-0.7,3.9-1,6.2-1c2.7,0,5.1,0.4,7.3,1.3c2.2,0.9,4,2,5.6,3.5L37.7,40.3z"/>
	<path id="path4335" class="st8" d="M95.7,74.7V33.5h4.3c1,0,1.7,0.5,2,1.5l0.6,4.5c1.8-2,3.8-3.6,6-4.8s4.8-1.8,7.7-1.8
		c2.3,0,4.2,0.4,6,1.1c1.7,0.7,3.2,1.8,4.3,3.2s2,3,2.6,4.9c0.6,1.9,0.9,4.1,0.9,6.4v26.2h-7.2V48.5c0-3.1-0.7-5.5-2.1-7.3
		s-3.6-2.6-6.5-2.6c-2.1,0-4.1,0.5-6,1.5s-3.6,2.4-5.1,4.2v30.3L95.7,74.7L95.7,74.7z"/>
	<path id="path4337" class="st8" d="M168.1,74.7h-3.2c-0.7,0-1.3-0.1-1.7-0.3c-0.4-0.2-0.7-0.7-0.9-1.4l-0.8-3.8
		c-1.1,1-2.1,1.8-3.2,2.6c-1,0.8-2.1,1.4-3.3,2c-1.1,0.5-2.4,0.9-3.6,1.2c-1.3,0.3-2.7,0.4-4.3,0.4s-3.1-0.2-4.5-0.7
		c-1.4-0.4-2.6-1.1-3.6-2s-1.9-2-2.5-3.4s-0.9-3-0.9-4.9c0-1.6,0.4-3.2,1.3-4.7s2.3-2.8,4.3-4s4.6-2.1,7.8-2.9
		c3.2-0.7,7.2-1.1,11.8-1.1v-3.2c0-3.2-0.7-5.7-2.1-7.3s-3.4-2.5-6.1-2.5c-1.8,0-3.2,0.2-4.5,0.7c-1.2,0.4-2.3,0.9-3.1,1.5
		c-0.9,0.6-1.6,1.1-2.3,1.5c-0.6,0.4-1.3,0.7-1.9,0.7c-0.5,0-0.9-0.1-1.3-0.4c-0.4-0.3-0.7-0.6-0.9-1l-1.3-2.3
		c2.3-2.2,4.7-3.8,7.4-4.9c2.6-1.1,5.5-1.6,8.7-1.6c2.3,0,4.4,0.4,6.1,1.1c1.8,0.8,3.3,1.8,4.5,3.2s2.1,3,2.8,4.9
		c0.6,1.9,0.9,4,0.9,6.3v26.3L168.1,74.7L168.1,74.7z M149.3,70.3c1.3,0,2.4-0.1,3.5-0.4s2.1-0.6,3-1.1s1.8-1,2.7-1.7
		s1.7-1.5,2.5-2.3v-8.5c-3.3,0-6.2,0.2-8.5,0.6c-2.3,0.4-4.2,1-5.7,1.7s-2.5,1.5-3.2,2.4s-1,2-1,3.1c0,1.1,0.2,2,0.5,2.8
		c0.4,0.8,0.8,1.4,1.4,1.9c0.6,0.5,1.3,0.9,2.1,1.1C147.5,70.2,148.4,70.3,149.3,70.3z"/>
	<path id="path4339" class="st8" d="M188.6,75.4c-3.3,0-5.8-0.9-7.5-2.7c-1.7-1.8-2.6-4.4-2.6-7.8V39.6h-5c-0.4,0-0.8-0.1-1.1-0.4
		c-0.3-0.3-0.4-0.7-0.4-1.2v-2.9l6.8-0.9l1.7-12.7c0.1-0.4,0.2-0.7,0.5-1s0.7-0.4,1.1-0.4h3.7v14.2h11.8v5.2h-11.8v24.7
		c0,1.7,0.4,3,1.3,3.9c0.8,0.8,1.9,1.3,3.3,1.3c0.8,0,1.4-0.1,2-0.3c0.6-0.2,1-0.4,1.4-0.7s0.8-0.5,1-0.7c0.3-0.2,0.5-0.3,0.8-0.3
		c0.4,0,0.7,0.2,1,0.7l2.1,3.5c-1.2,1.2-2.8,2.1-4.5,2.7C192.3,75,190.5,75.4,188.6,75.4z"/>
	<path id="path4341" class="st8" d="M234.7,74.7h-3.2c-0.7,0-1.3-0.1-1.7-0.3c-0.4-0.2-0.7-0.7-0.9-1.4l-0.8-3.8
		c-1.1,1-2.1,1.8-3.2,2.6c-1,0.8-2.1,1.4-3.3,2c-1.1,0.5-2.4,0.9-3.6,1.2c-1.3,0.3-2.7,0.4-4.3,0.4s-3.1-0.2-4.5-0.7
		c-1.4-0.4-2.6-1.1-3.6-2s-1.9-2-2.5-3.4s-0.9-3-0.9-4.9c0-1.6,0.4-3.2,1.3-4.7s2.3-2.8,4.3-4s4.6-2.1,7.8-2.9
		c3.2-0.7,7.2-1.1,11.8-1.1v-3.2c0-3.2-0.7-5.7-2.1-7.3s-3.4-2.5-6.1-2.5c-1.8,0-3.2,0.2-4.5,0.7c-1.2,0.4-2.3,0.9-3.1,1.5
		c-0.9,0.6-1.6,1.1-2.3,1.5c-0.6,0.4-1.3,0.7-1.9,0.7c-0.5,0-0.9-0.1-1.3-0.4c-0.4-0.3-0.7-0.6-0.9-1l-1.3-2.3
		c2.3-2.2,4.7-3.8,7.4-4.9c2.6-1.1,5.5-1.6,8.7-1.6c2.3,0,4.4,0.4,6.1,1.1c1.8,0.8,3.3,1.8,4.5,3.2s2.1,3,2.8,4.9
		c0.6,1.9,0.9,4,0.9,6.3v26.3L234.7,74.7L234.7,74.7z M215.9,70.3c1.3,0,2.4-0.1,3.5-0.4s2.1-0.6,3-1.1s1.8-1,2.7-1.7
		s1.7-1.5,2.5-2.3v-8.5c-3.3,0-6.2,0.2-8.5,0.6c-2.3,0.4-4.2,1-5.7,1.7s-2.5,1.5-3.2,2.4s-1,2-1,3.1c0,1.1,0.2,2,0.5,2.8
		c0.4,0.8,0.8,1.4,1.4,1.9c0.6,0.5,1.3,0.9,2.1,1.1C214.1,70.2,215,70.3,215.9,70.3z"/>
</g>
<g id="g5466" transform="matrix(0.5,0,0,0.5,161.45913,87.525109)">
	<path id="path3375" inkscape:connector-curvature="0" d="M307.5,46.2c0,8.6-6.2,16.1-15.8,18.1c-7.5,1.6-15.4-0.5-21.1-5.1
		c4.9,7.2,14.5,11.2,23.6,9.3c10.9-2.3,16.8-12.2,13.4-22.2C307.5,46.3,307.5,46.3,307.5,46.2z"/>
	<path id="path3386" inkscape:connector-curvature="0" class="st9" d="M281.1,30c7.8-3.5,17.2-0.9,23,7.1c4.5,6.2,5.8,14.2,4,21.3
		c4.5-7.4,4.3-17.8-1.1-25.3c-6.5-9-18-10.4-25.7-3.2C281.2,29.9,281.1,30,281.1,30L281.1,30z"/>
	<path id="path3403" inkscape:connector-curvature="0" class="st10" d="M278.8,63.1c-7.1-4.9-9.8-14.2-6.1-23.2
		c2.9-7.1,9.1-12.4,16-14.6c-8.7,0-17.4,5.7-21,14.3c-4.1,10.2,0.7,20.7,10.9,23.5C278.7,63.1,278.7,63.1,278.8,63.1z"/>
	<text transform="matrix(2 0 0 2 23.9138 66.8125)" class="st10 st11 st12">5G</text>
	<text transform="matrix(2 0 0 2 117.7731 66.8125)" class="st11 st12">tang</text>
</g>
<text transform="matrix(1 0 0 1 81.4771 108.6476)" class="st11 st13">powered by</text>
</svg>
