<?xml version="1.0" encoding="utf-8"?>
<!-- Generator: Adobe Illustrator 17.0.0, SVG Export Plug-In . SVG Version: 6.00 Build 0)  -->
<!DOCTYPE svg PUBLIC "-//W3C//DTD SVG 1.1//EN" "http://www.w3.org/Graphics/SVG/1.1/DTD/svg11.dtd">
<svg version="1.1" id="Capa_1" xmlns="http://www.w3.org/2000/svg" xmlns:xlink="http://www.w3.org/1999/xlink" x="0px" y="0px"
	 width="345.427px" height="66.013px" viewBox="0 0 345.427 66.013" enable-background="new 0 0 345.427 66.013"
	 xml:space="preserve">
<g>
	<g>
		<path fill-rule="evenodd" clip-rule="evenodd" d="M278.596,31.696c0,8.54-6.156,15.983-15.684,17.968
			c-7.444,1.587-15.285-0.496-20.941-5.066c4.865,7.149,14.391,11.119,23.422,9.232c10.82-2.284,16.677-12.106,13.301-22.031
			C278.596,31.799,278.596,31.799,278.596,31.696L278.596,31.696z M278.596,31.696"/>
		<path fill-rule="evenodd" clip-rule="evenodd" fill="#792122" d="M252.392,15.618c7.739-3.474,17.07-0.893,22.828,7.047
			c4.466,6.156,5.754,14.096,3.97,21.142c4.466-7.346,4.265-17.668-1.09-25.112c-6.451-8.933-17.865-10.323-25.51-3.175
			C252.49,15.52,252.392,15.618,252.392,15.618L252.392,15.618z M252.392,15.618"/>
		<path fill-rule="evenodd" clip-rule="evenodd" fill="#D40B0E" d="M250.107,48.47c-7.046-4.865-9.723-14.092-6.053-23.025
			c2.88-7.046,9.031-12.308,15.88-14.489c-8.632,0-17.27,5.655-20.843,14.19c-4.068,10.126,0.693,20.548,10.82,23.324
			C250.009,48.47,250.009,48.47,250.107,48.47L250.107,48.47z M250.107,48.47"/>
	</g>
	<g>
		<g>
			<path fill="none" stroke="#000000" stroke-width="1.5" stroke-miterlimit="7.3333" d="M315.443,7.623
				c0,2.877-2.335,5.211-5.211,5.211c-2.881,0-5.215-2.333-5.215-5.211c0-2.881,2.333-5.215,5.215-5.215
				C313.108,2.409,315.443,4.742,315.443,7.623L315.443,7.623z M315.443,7.623"/>
			<path fill="none" stroke="#D40B0E" stroke-width="1.5" stroke-miterlimit="7.3333" d="M341.978,16.88
				c0,2.881-2.333,5.216-5.215,5.216c-2.877,0-5.211-2.335-5.211-5.216c0-2.876,2.333-5.209,5.211-5.209
				C339.644,11.67,341.978,14.004,341.978,16.88L341.978,16.88z M341.978,16.88"/>
		</g>
		<path fill="none" stroke="#000000" stroke-width="1.5" stroke-miterlimit="7.3333" d="M301.529,55.428
			c0,1.963-1.732,3.555-3.878,3.555c-2.141,0-3.878-1.592-3.878-3.555c0-1.963,1.737-3.555,3.878-3.555
			C299.797,51.873,301.529,53.464,301.529,55.428L301.529,55.428z M301.529,55.428"/>
		<g>
			<path fill="none" stroke="#D40B0E" stroke-width="1.5" stroke-miterlimit="7.3333" d="M325.538,55.428
				c0,1.963-1.739,3.555-3.878,3.555c-2.141,0-3.878-1.592-3.878-3.555c0-1.963,1.737-3.555,3.878-3.555
				C323.799,51.873,325.538,53.464,325.538,55.428L325.538,55.428z M325.538,55.428 M344.677,55.428c0,1.963-1.733,3.555-3.88,3.555
				c-2.14,0-3.873-1.592-3.873-3.555c0-1.963,1.733-3.555,3.873-3.555C342.944,51.873,344.677,53.464,344.677,55.428L344.677,55.428
				z M344.677,55.428"/>
		</g>
		
			<line fill="none" stroke="#000000" stroke-width="1.5" stroke-miterlimit="7.33" x1="308.353" y1="12.928" x2="295.062" y2="53.157"/>
		<polyline fill="none" stroke="#D40B0E" stroke-width="1.5" stroke-miterlimit="7.3333" points="333.986,22.011 315.17,41.478 
			321.983,51.533 		"/>
		<g>
			
				<line fill="none" stroke="#000000" stroke-width="1.5" stroke-miterlimit="7.3333" x1="306.088" y1="21.04" x2="324.254" y2="31.095"/>
			<polyline fill="none" stroke="#D40B0E" stroke-width="1.5" stroke-miterlimit="7.3333" points="306.411,19.417 325.231,30.124 
				342.421,51.862 			"/>
		</g>
	</g>
	<g>
		<path fill="#030405" d="M115.627,47.884c0,0.77-0.054,1.379-0.159,1.829c-0.106,0.451-0.265,0.782-0.477,0.994
			c-0.212,0.212-0.531,0.411-0.954,0.596c-0.424,0.187-0.908,0.338-1.451,0.458c-0.543,0.119-1.12,0.219-1.729,0.298
			c-0.61,0.079-1.219,0.119-1.829,0.119c-1.855,0-3.446-0.245-4.771-0.735c-1.326-0.49-2.412-1.232-3.26-2.227
			c-0.849-0.994-1.465-2.252-1.849-3.776s-0.576-3.32-0.576-5.388V19.141h-5.009c-0.397,0-0.716-0.212-0.954-0.637
			c-0.239-0.424-0.358-1.113-0.358-2.067c0-0.503,0.033-0.927,0.099-1.271c0.066-0.345,0.152-0.63,0.259-0.855
			c0.105-0.225,0.245-0.384,0.417-0.477c0.172-0.093,0.364-0.14,0.576-0.14h4.97V5.186c0-0.185,0.046-0.357,0.139-0.517
			c0.092-0.159,0.265-0.298,0.517-0.418c0.252-0.119,0.59-0.204,1.014-0.258c0.423-0.053,0.954-0.08,1.59-0.08
			c0.663,0,1.206,0.027,1.63,0.08c0.423,0.054,0.755,0.139,0.994,0.258c0.239,0.12,0.411,0.259,0.517,0.418
			c0.105,0.159,0.159,0.332,0.159,0.517v8.508h9.184c0.211,0,0.397,0.047,0.557,0.14c0.159,0.093,0.298,0.252,0.417,0.477
			c0.12,0.226,0.205,0.511,0.259,0.855c0.053,0.345,0.08,0.769,0.08,1.271c0,0.954-0.12,1.644-0.358,2.067
			c-0.239,0.425-0.557,0.637-0.954,0.637h-9.184v19.957c0,2.465,0.364,4.327,1.093,5.586c0.729,1.26,2.034,1.889,3.916,1.889
			c0.609,0,1.153-0.06,1.63-0.179s0.9-0.245,1.272-0.378c0.371-0.133,0.689-0.259,0.954-0.378c0.265-0.119,0.503-0.179,0.716-0.179
			c0.132,0,0.258,0.033,0.377,0.1c0.12,0.066,0.212,0.192,0.278,0.378c0.066,0.186,0.125,0.437,0.179,0.755
			C115.601,47.01,115.627,47.407,115.627,47.884z"/>
		<path fill="#030405" d="M150.255,50.548c0,0.318-0.106,0.557-0.318,0.716c-0.212,0.159-0.504,0.278-0.875,0.357
			c-0.371,0.08-0.914,0.119-1.63,0.119c-0.689,0-1.239-0.039-1.65-0.119c-0.411-0.079-0.709-0.198-0.895-0.357
			c-0.186-0.159-0.278-0.397-0.278-0.716V46.97c-1.564,1.67-3.307,2.969-5.228,3.896c-1.922,0.927-3.956,1.392-6.103,1.392
			c-1.882,0-3.585-0.246-5.108-0.736c-1.524-0.49-2.823-1.198-3.896-2.127c-1.073-0.927-1.908-2.067-2.504-3.419
			c-0.597-1.352-0.895-2.889-0.895-4.611c0-2.014,0.411-3.764,1.232-5.248c0.821-1.484,2.001-2.717,3.538-3.697
			s3.419-1.716,5.646-2.207c2.227-0.489,4.731-0.735,7.514-0.735h4.93v-2.782c0-1.378-0.146-2.598-0.438-3.658
			c-0.292-1.06-0.762-1.941-1.411-2.644c-0.65-0.702-1.491-1.232-2.524-1.59c-1.034-0.358-2.306-0.537-3.817-0.537
			c-1.617,0-3.068,0.192-4.353,0.576c-1.286,0.385-2.412,0.809-3.379,1.272c-0.968,0.464-1.776,0.889-2.425,1.272
			c-0.65,0.384-1.133,0.576-1.451,0.576c-0.212,0-0.397-0.053-0.557-0.159c-0.159-0.105-0.298-0.265-0.417-0.477
			c-0.119-0.212-0.206-0.483-0.258-0.815c-0.053-0.331-0.08-0.695-0.08-1.093c0-0.663,0.046-1.187,0.139-1.571
			c0.093-0.384,0.318-0.748,0.676-1.093c0.358-0.344,0.974-0.749,1.849-1.213c0.875-0.463,1.881-0.888,3.021-1.271
			c1.139-0.385,2.385-0.702,3.737-0.955c1.352-0.251,2.716-0.377,4.095-0.377c2.571,0,4.757,0.292,6.56,0.874
			c1.802,0.584,3.26,1.438,4.373,2.564c1.113,1.127,1.921,2.524,2.425,4.194c0.503,1.67,0.755,3.618,0.755,5.845V50.548z
			 M143.735,34.208h-5.605c-1.803,0-3.367,0.152-4.691,0.457c-1.326,0.305-2.425,0.756-3.3,1.352
			c-0.875,0.597-1.518,1.312-1.928,2.147c-0.411,0.835-0.616,1.796-0.616,2.882c0,1.855,0.589,3.333,1.769,4.433
			c1.179,1.101,2.829,1.65,4.95,1.65c1.723,0,3.32-0.438,4.791-1.312c1.471-0.874,3.015-2.212,4.632-4.015V34.208z"/>
		<path fill="#030405" d="M193.113,50.508c0,0.213-0.054,0.392-0.159,0.537c-0.106,0.146-0.278,0.271-0.517,0.378
			c-0.239,0.105-0.57,0.185-0.994,0.238c-0.424,0.053-0.954,0.079-1.59,0.079c-0.663,0-1.206-0.026-1.63-0.079
			c-0.424-0.054-0.755-0.133-0.994-0.238c-0.239-0.106-0.412-0.232-0.517-0.378c-0.106-0.146-0.159-0.324-0.159-0.537V29.557
			c0-2.041-0.159-3.684-0.477-4.93c-0.318-1.246-0.782-2.319-1.391-3.221c-0.61-0.9-1.398-1.59-2.366-2.067
			c-0.968-0.477-2.087-0.716-3.359-0.716c-1.644,0-3.287,0.584-4.93,1.75c-1.644,1.166-3.366,2.876-5.168,5.128v25.007
			c0,0.213-0.053,0.392-0.159,0.537s-0.278,0.271-0.517,0.378c-0.239,0.105-0.57,0.185-0.994,0.238
			c-0.424,0.053-0.968,0.079-1.63,0.079c-0.636,0-1.167-0.026-1.59-0.079c-0.424-0.054-0.762-0.133-1.014-0.238
			c-0.252-0.106-0.424-0.232-0.517-0.378s-0.139-0.324-0.139-0.537v-35.78c0-0.212,0.04-0.391,0.12-0.537
			c0.08-0.146,0.238-0.278,0.477-0.397c0.238-0.119,0.543-0.199,0.914-0.238c0.371-0.04,0.861-0.06,1.471-0.06
			c0.583,0,1.066,0.02,1.451,0.06c0.384,0.039,0.682,0.119,0.895,0.238c0.212,0.119,0.364,0.252,0.457,0.397
			c0.093,0.146,0.139,0.325,0.139,0.537v4.73c2.014-2.252,4.021-3.902,6.023-4.949c2-1.047,4.021-1.57,6.062-1.57
			c2.386,0,4.393,0.404,6.023,1.212c1.63,0.81,2.948,1.889,3.956,3.24c1.007,1.352,1.729,2.937,2.167,4.751
			c0.438,1.816,0.656,3.996,0.656,6.54V50.508z"/>
		<path fill="#030405" d="M234.976,16.357c0,0.928-0.126,1.597-0.377,2.008c-0.252,0.411-0.577,0.616-0.974,0.616h-5.128
			c0.927,0.954,1.576,2.008,1.948,3.16c0.371,1.153,0.557,2.353,0.557,3.599c0,2.066-0.332,3.896-0.994,5.486
			c-0.663,1.59-1.61,2.936-2.843,4.035s-2.697,1.941-4.393,2.524c-1.697,0.583-3.578,0.874-5.646,0.874
			c-1.458,0-2.843-0.191-4.154-0.576c-1.312-0.384-2.326-0.867-3.042-1.451c-0.477,0.478-0.869,1.021-1.173,1.63
			c-0.305,0.61-0.457,1.312-0.457,2.107c0,0.928,0.43,1.696,1.292,2.306c0.861,0.61,2.008,0.941,3.439,0.994l9.343,0.397
			c1.775,0.054,3.405,0.298,4.89,0.735s2.77,1.061,3.856,1.869c1.086,0.809,1.935,1.803,2.544,2.981
			c0.609,1.18,0.915,2.551,0.915,4.115c0,1.643-0.345,3.206-1.034,4.69c-0.689,1.484-1.743,2.789-3.161,3.916
			c-1.418,1.127-3.227,2.015-5.427,2.664c-2.2,0.649-4.797,0.974-7.792,0.974c-2.889,0-5.347-0.245-7.375-0.735
			c-2.028-0.49-3.691-1.159-4.99-2.008c-1.299-0.849-2.24-1.862-2.822-3.041c-0.583-1.18-0.875-2.459-0.875-3.837
			c0-0.874,0.106-1.723,0.318-2.544c0.212-0.822,0.537-1.604,0.974-2.346c0.437-0.742,0.98-1.451,1.63-2.127
			c0.649-0.676,1.397-1.345,2.246-2.008c-1.299-0.662-2.26-1.497-2.882-2.505c-0.623-1.007-0.934-2.093-0.934-3.26
			c0-1.616,0.331-3.062,0.994-4.333c0.662-1.272,1.484-2.412,2.465-3.42c-0.822-0.979-1.471-2.087-1.948-3.319
			s-0.716-2.724-0.716-4.473c0-2.04,0.344-3.869,1.034-5.486c0.689-1.616,1.643-2.981,2.862-4.095
			c1.219-1.113,2.684-1.968,4.393-2.564c1.71-0.597,3.571-0.895,5.586-0.895c1.086,0,2.1,0.06,3.042,0.179
			c0.94,0.119,1.822,0.285,2.644,0.497h10.814c0.45,0,0.788,0.219,1.014,0.656C234.863,14.787,234.976,15.456,234.976,16.357z
			 M228.019,54.126c0-1.537-0.63-2.724-1.888-3.559c-1.259-0.835-2.962-1.278-5.109-1.332l-9.263-0.317
			c-0.849,0.663-1.544,1.292-2.087,1.889c-0.544,0.596-0.974,1.166-1.292,1.709c-0.318,0.543-0.537,1.08-0.656,1.61
			c-0.119,0.529-0.179,1.073-0.179,1.63c0,1.723,0.875,3.027,2.624,3.916c1.75,0.888,4.188,1.332,7.315,1.332
			c1.988,0,3.651-0.192,4.989-0.576c1.338-0.385,2.418-0.895,3.24-1.531c0.821-0.636,1.412-1.365,1.769-2.187
			C227.84,55.889,228.019,55.026,228.019,54.126z M224.719,25.779c0-2.438-0.67-4.34-2.008-5.705
			c-1.339-1.364-3.24-2.047-5.705-2.047c-1.272,0-2.379,0.212-3.32,0.636c-0.941,0.425-1.723,1.008-2.346,1.749
			c-0.623,0.742-1.087,1.598-1.391,2.564c-0.305,0.968-0.458,1.981-0.458,3.042c0,2.358,0.669,4.214,2.008,5.565
			c1.338,1.352,3.213,2.027,5.625,2.027c1.298,0,2.425-0.205,3.379-0.616c0.954-0.41,1.742-0.98,2.365-1.709
			c0.623-0.729,1.087-1.57,1.392-2.524C224.566,27.807,224.719,26.813,224.719,25.779z"/>
	</g>
	<g>
		<path fill="#D40B0E" d="M32.84,36.017c0,2.787-0.469,5.266-1.407,7.437c-0.938,2.17-2.265,3.999-3.979,5.486
			c-1.715,1.487-3.758,2.62-6.13,3.396c-2.372,0.777-5.004,1.166-7.899,1.166c-1.607,0-3.135-0.114-4.582-0.342
			c-1.447-0.228-2.733-0.509-3.859-0.844s-2.05-0.663-2.774-0.985c-0.723-0.321-1.186-0.575-1.387-0.764
			c-0.201-0.187-0.342-0.361-0.422-0.522c-0.081-0.16-0.155-0.354-0.221-0.583c-0.067-0.227-0.114-0.516-0.141-0.864
			C0.013,48.25,0,47.834,0,47.352c0-0.455,0.02-0.864,0.06-1.226c0.04-0.362,0.114-0.656,0.221-0.885
			c0.107-0.227,0.234-0.395,0.382-0.502c0.147-0.106,0.314-0.161,0.502-0.161c0.268,0,0.683,0.168,1.246,0.503
			s1.32,0.697,2.271,1.085c0.951,0.389,2.13,0.758,3.538,1.105c1.407,0.349,3.075,0.522,5.004,0.522
			c1.795,0,3.443-0.214,4.944-0.643c1.5-0.429,2.793-1.099,3.879-2.011c1.085-0.91,1.936-2.056,2.552-3.437
			c0.616-1.38,0.925-3.062,0.925-5.045c0-1.661-0.261-3.128-0.784-4.401c-0.522-1.272-1.326-2.331-2.412-3.176
			c-1.085-0.844-2.459-1.473-4.12-1.889c-1.662-0.415-3.645-0.623-5.949-0.623c-1.635,0-3.042,0.08-4.221,0.241
			c-1.179,0.16-2.278,0.241-3.296,0.241c-0.75,0-1.287-0.174-1.608-0.522c-0.322-0.349-0.482-1.019-0.482-2.01V3.337
			c0-0.885,0.207-1.541,0.623-1.97c0.415-0.429,1.011-0.644,1.789-0.644h23.033c0.214,0,0.422,0.061,0.623,0.181
			c0.201,0.121,0.368,0.302,0.502,0.543c0.134,0.241,0.234,0.55,0.302,0.925c0.066,0.375,0.101,0.817,0.101,1.326
			c0,0.965-0.129,1.715-0.385,2.251c-0.257,0.536-0.616,0.804-1.078,0.804H9.566v14.592c0.903-0.134,1.827-0.214,2.769-0.241
			c0.942-0.026,2.033-0.04,3.273-0.04c2.865,0,5.37,0.355,7.513,1.065s3.93,1.715,5.364,3.015c1.433,1.3,2.517,2.874,3.252,4.723
			C32.473,31.716,32.84,33.766,32.84,36.017z"/>
		<path fill="#D40B0E" d="M83.649,7.798c0,0.51-0.027,0.959-0.08,1.347c-0.054,0.389-0.134,0.711-0.241,0.965
			c-0.107,0.255-0.241,0.437-0.402,0.543c-0.161,0.107-0.335,0.161-0.523,0.161c-0.321,0-0.858-0.255-1.607-0.764
			c-0.751-0.509-1.756-1.072-3.015-1.688c-1.26-0.616-2.767-1.179-4.522-1.688c-1.755-0.509-3.839-0.764-6.25-0.764
			c-2.868,0-5.44,0.522-7.718,1.567c-2.278,1.045-4.208,2.492-5.789,4.342c-1.582,1.849-2.793,4.046-3.638,6.592
			s-1.266,5.306-1.266,8.28c0,3.323,0.462,6.271,1.387,8.844s2.204,4.743,3.839,6.512c1.634,1.769,3.583,3.109,5.849,4.02
			c2.264,0.911,4.75,1.367,7.457,1.367c1.608,0,3.236-0.194,4.884-0.583s3.182-0.971,4.603-1.749V29.946H64.556
			c-0.456,0-0.798-0.227-1.025-0.683c-0.228-0.456-0.342-1.166-0.342-2.131c0-0.509,0.026-0.944,0.081-1.307
			c0.053-0.361,0.141-0.656,0.261-0.884s0.261-0.396,0.422-0.503c0.161-0.106,0.362-0.16,0.603-0.16h16.521
			c0.294,0,0.589,0.054,0.884,0.16c0.294,0.107,0.562,0.269,0.804,0.482c0.241,0.215,0.429,0.51,0.563,0.885
			c0.134,0.375,0.201,0.804,0.201,1.286V46.91c0,0.696-0.12,1.3-0.361,1.809s-0.751,0.958-1.528,1.347
			c-0.777,0.389-1.782,0.811-3.015,1.266c-1.233,0.456-2.506,0.845-3.819,1.166s-2.64,0.562-3.979,0.724
			c-1.34,0.161-2.667,0.241-3.979,0.241c-4.02,0-7.611-0.623-10.772-1.869c-3.163-1.246-5.835-3.021-8.02-5.326
			s-3.853-5.064-5.004-8.28c-1.152-3.216-1.729-6.807-1.729-10.773c0-4.126,0.623-7.864,1.869-11.215
			c1.246-3.35,3.001-6.203,5.266-8.562c2.264-2.357,4.984-4.187,8.16-5.487C59.792,0.65,63.31,0,67.168,0
			c1.983,0,3.845,0.175,5.587,0.522c1.742,0.349,3.289,0.758,4.643,1.227c1.353,0.469,2.492,0.979,3.417,1.527
			c0.924,0.55,1.561,0.998,1.909,1.347c0.348,0.349,0.589,0.75,0.724,1.206C83.582,6.284,83.649,6.941,83.649,7.798z"/>
	</g>
</g>
</svg>
