<?xml version="1.0" encoding="utf-8"?>
<!-- Generator: Adobe Illustrator 17.0.0, SVG Export Plug-In . SVG Version: 6.00 Build 0)  -->
<!DOCTYPE svg PUBLIC "-//W3C//DTD SVG 1.1//EN" "http://www.w3.org/Graphics/SVG/1.1/DTD/svg11.dtd">
<svg version="1.1" id="Capa_1" xmlns="http://www.w3.org/2000/svg" xmlns:xlink="http://www.w3.org/1999/xlink" x="0px" y="0px"
	 width="46px" height="46px" viewBox="0 0 46 46" enable-background="new 0 0 46 46" xml:space="preserve">
<path d="M41.595,35.834l-0.151,0.182c-4.916,5.901-11.467,9.151-18.444,9.151c-6.974,0-13.529-3.25-18.45-9.151l-0.146-0.182
	l0.035-0.225c0.952-6.199,4.186-11.174,9.116-14.022l0.348-0.201l0.282,0.291c2.329,2.441,5.458,3.789,8.815,3.789
	c3.355,0,6.485-1.349,8.814-3.789l0.277-0.291l0.353,0.201c4.925,2.848,8.164,7.823,9.116,14.022L41.595,35.834z M23.001,22.975
	c6.102,0,11.068-4.965,11.068-11.069c0-6.108-4.965-11.073-11.068-11.073c-6.104,0-11.069,4.965-11.069,11.068
	C11.932,18.005,16.897,22.975,23.001,22.975L23.001,22.975z M23.001,22.975"/>
</svg>
