<?xml version="1.0" standalone="no"?>
<!DOCTYPE svg PUBLIC "-//W3C//DTD SVG 1.1//EN" "http://www.w3.org/Graphics/SVG/1.1/DTD/svg11.dtd" >
<svg xmlns="http://www.w3.org/2000/svg">
<metadata>Generated by IcoMoon</metadata>
<defs>
<font id="WUI-Project-iconfont" horiz-adv-x="1024">
<font-face units-per-em="1024" ascent="960" descent="-64" />
<missing-glyph horiz-adv-x="1024" />
<glyph unicode="&#x20;" horiz-adv-x="512" d="" />
<glyph unicode="&#xe900;" glyph-name="lock-alt" horiz-adv-x="896" d="M702.72-46.88h-509.44c-51.215 0.091-92.709 41.584-92.8 92.791v427.369c0.276 30.931 15.563 58.234 38.921 75.010l0.279 0.19v86.080c0 170.28 138.040 308.32 308.32 308.32s308.32-138.040 308.32-308.32v0-86.080c23.637-16.966 38.924-44.269 39.2-75.157v-427.403c-0.091-51.215-41.584-92.709-92.791-92.8h-0.009zM448 914.080c-154.301-0.182-279.338-125.219-279.52-279.502v-100.978l-7.040-5.44c-19.112-11.181-31.794-31.526-32-54.851v-427.389c0-35.346 28.654-64 64-64v0h509.28c35.346 0 64 28.654 64 64v0 427.36c-0.206 23.354-12.888 43.699-31.698 54.716l-0.302 0.164-7.36 4.48v101.92c-0.182 154.245-125.127 279.247-279.334 279.52h-0.026zM455.52 54.56h-15.040c-35.346 0-64 28.654-64 64v0 105.44c-22.127 19.645-36 48.164-36 79.924 0 0.027 0 0.053 0 0.080v-0.004c0 59.47 48.21 107.68 107.68 107.68s107.68-48.21 107.68-107.68v0c0-0.023 0-0.049 0-0.076 0-31.76-13.873-60.279-35.89-79.828l-0.11-0.096v-105.6c-0.091-35.278-28.71-63.841-64-63.841-0.113 0-0.225 0-0.337 0.001h0.017zM677.92 537.12h-459.84v97.44c0 126.981 102.939 229.92 229.92 229.92s229.92-102.939 229.92-229.92v0zM246.88 566.080h402.24v68.48c0 111.076-90.044 201.12-201.12 201.12s-201.12-90.044-201.12-201.12v0z" />
<glyph unicode="&#xe901;" glyph-name="lock" horiz-adv-x="896" d="M756.4 551.912v86.080c-3.932 167.32-140.501 301.455-308.4 301.455s-304.468-134.135-308.393-301.090l-0.007-0.365v-86.080c-23.594-16.979-38.832-44.288-39.040-75.167v-427.393c0-51.252 41.548-92.8 92.8-92.8v0h509.28c51.252 0 92.8 41.548 92.8 92.8v0 427.36c-0.208 30.912-15.446 58.221-38.764 75.011l-0.276 0.189zM519.76 227.432v-105.6c0-35.346-28.654-64-64-64v0h-15.2c-35.346 0-64 28.654-64 64v0 105.6c-22.041 19.827-35.84 48.444-35.84 80.284 0 59.558 48.282 107.84 107.84 107.84s107.84-48.282 107.84-107.84c0-31.84-13.799-60.456-35.742-80.197l-0.098-0.087zM649.2 569.192h-402.4v68.8c3.162 108.696 92.032 195.606 201.2 195.606s198.038-86.91 201.193-195.315l0.007-0.291z" />
<glyph unicode="&#xe902;" glyph-name="gear" d="M372.96-54.88h-103.040c-12.636 0-22.88 10.244-22.88 22.88v0 62.56c-14.075 5.010-25.953 10.406-37.296 16.655l1.296-0.655-45.44-44.96c-4.138-3.998-9.781-6.462-16-6.462s-11.862 2.464-16.007 6.468l0.007-0.006-73.28 72.8c-4.106 4.097-6.664 9.744-6.72 15.989v0.011c0.064 6.225 2.553 11.857 6.566 16.006l47.994 47.994c-4.194 8.462-8.317 18.685-11.705 29.239l-0.455 1.641h-56.96c-0.048 0-0.104-0.001-0.161-0.001-12.58 0-22.789 10.153-22.879 22.712v103.369c0 12.636 10.244 22.88 22.88 22.88v0h57.12c5.251 17.075 11.607 31.806 19.329 45.672l-0.609-1.192-44.48 43.84c-3.998 4.138-6.462 9.781-6.462 16s2.464 11.862 6.468 16.007l-0.006-0.007 73.76 73.44c4.17 3.927 9.803 6.34 16 6.34s11.83-2.413 16.012-6.351l-0.012 0.011 45.6-45.44c9.402 4.619 20.794 9.178 32.546 12.929l1.854 0.511v58.080c0 0 0 0 0 0.001 0 12.668 10.224 22.949 22.871 23.039h103.049c12.688-0.090 22.95-10.352 23.040-23.031v-58.089c13.668-4.43 25.154-9.198 36.18-14.746l-1.46 0.666 38.24 38.080c4.105 4.073 9.759 6.589 16 6.589s11.895-2.517 16.001-6.591l-0.001 0.001 73.12-72c4.079-4.114 6.628-9.751 6.72-15.982v-0.018c-0.037-6.259-2.6-11.912-6.719-15.999l-36.481-36.481c6.207-11.080 12.045-24.080 16.75-37.609l0.53-1.751h54.4c12.636 0 22.88-10.244 22.88-22.88v0-103.2c0-12.636-10.244-22.88-22.88-22.88h-52.8c-5.288-17.18-11.588-31.964-19.203-45.928l0.643 1.288 41.6-41.6c3.998-4.138 6.462-9.781 6.462-16s-2.464-11.862-6.468-16.007l0.006 0.007-72.96-72.96c-4.105-4.073-9.759-6.589-16-6.589s-11.895 2.517-16.001 6.591l-43.199 43.199c-12.397-6.029-27.025-11.494-42.215-15.59l-1.785-0.41v-59.2c-0.089-12.657-10.37-22.882-23.039-22.882-0.113 0-0.225 0.001-0.338 0.002h0.017zM330.24 346.24c-0.033 0-0.073 0-0.113 0-46.657 0-84.48-37.823-84.48-84.48s37.823-84.48 84.48-84.48c46.657 0 84.48 37.823 84.48 84.48 0 23.3-9.433 44.398-24.689 59.681l0.001-0.001c-15.171 15.317-36.208 24.8-59.46 24.8-0.077 0-0.154 0-0.232 0h0.012zM828.8 318.72h-67.36c-10.27 0.091-18.56 8.437-18.56 18.719 0 0 0 0 0 0.001v0 38.4c-7.61 2.575-14.007 5.333-20.139 8.53l0.779-0.37-27.84-27.2c-3.335-3.36-7.955-5.44-13.061-5.44-0.021 0-0.041 0-0.062 0h0.003c-0.017 0-0.038 0-0.059 0-5.106 0-9.727 2.080-13.060 5.439l-48.001 48.001c-3.395 3.34-5.499 7.984-5.499 13.12s2.104 9.78 5.497 13.118l0.002 0.002 29.76 29.92c-2.24 4.96-4.32 10.080-6.24 15.2h-34.56c-10.090 0.176-18.224 8.31-18.4 18.383v67.377c0 10.25 8.31 18.56 18.56 18.56v0h34.080c3.273 9.761 6.843 18.010 11.010 25.895l-0.45-0.935-26.72 26.72c-3.404 3.366-5.513 8.037-5.513 13.2s2.108 9.834 5.511 13.198l48.002 48.002c3.358 3.356 7.997 5.432 13.12 5.432s9.762-2.076 13.12-5.432l28-28c4.874 2.38 10.958 4.87 17.206 7.006l1.194 0.354v34.080c-0.011 0.24-0.017 0.521-0.017 0.803 0 10.25 8.31 18.56 18.56 18.56 0.119 0 0.237-0.001 0.355-0.003h67.342c9.994-0.434 17.932-8.642 17.932-18.703 0-0.231-0.004-0.461-0.012-0.69l0.001 0.033v-35.2c7.342-2.468 13.424-5.011 19.292-7.92l-0.892 0.4 23.2 23.2c3.392 3.281 8.020 5.304 13.12 5.304s9.728-2.022 13.125-5.309l47.995-47.995c3.328-3.401 5.381-8.061 5.381-13.2s-2.053-9.799-5.385-13.203l-21.917-21.917c3.194-5.891 6.376-12.963 9.065-20.274l0.375-1.166h32.96c9.803-0.069 17.795-7.727 18.397-17.387l0.003-0.053v-67.52c0-10.25-8.31-18.56-18.56-18.56v0h-32c-3.212-9.761-6.732-18.014-10.849-25.905l0.449 0.945 25.28-25.44c3.395-3.34 5.499-7.984 5.499-13.12s-2.104-9.78-5.497-13.118l-48.002-48.002c-3.358-3.356-7.997-5.432-13.12-5.432s-9.762 2.076-13.12 5.432v0l-26.080 26.72c-6.818-3.351-14.939-6.508-23.348-8.993l-1.132-0.287v-34.56c-0.090-10.302-8.418-18.63-18.711-18.72h-0.009zM800.96 581.28c-0.010 0-0.022 0-0.034 0-28.542 0-51.68-23.138-51.68-51.68 0-14.24 5.759-27.134 15.075-36.481l-0.001 0.001c9.487-9.065 22.372-14.644 36.56-14.644s27.073 5.579 36.58 14.663l-0.020-0.019c9.276 9.363 15.008 22.252 15.008 36.48s-5.732 27.117-15.012 36.484l0.004-0.004c-9.31 9.388-22.213 15.2-36.473 15.2-0.002 0-0.005 0-0.007 0v0zM487.040 588.16h-2.24l-56.48 7.040c-8.602 1.165-15.163 8.462-15.163 17.291 0 0.729 0.045 1.448 0.132 2.154l-0.008-0.085 3.84 31.2c-4.48 2.4-9.12 5.28-13.44 8.16l-25.28-19.52c-2.865-2.288-6.54-3.671-10.538-3.671-0.798 0-1.582 0.055-2.351 0.162l0.089-0.010c-4.755 0.444-8.857 2.908-11.488 6.514l-0.032 0.046-35.040 44.96c-2.26 3.003-3.619 6.795-3.619 10.905 0 0.668 0.036 1.327 0.106 1.976l-0.007-0.081c0.638 4.698 3.048 8.737 6.523 11.492l0.037 0.028 27.36 21.28c-1.12 3.68-2.24 7.52-3.040 11.36l-28.16 3.52c-8.236 1.498-14.399 8.616-14.399 17.173 0 0.828 0.058 1.642 0.169 2.439l-0.011-0.092 7.040 56.64c0.68 4.719 3.147 8.761 6.679 11.49l0.041 0.030c2.756 2.316 6.344 3.723 10.26 3.723 0.897 0 1.776-0.074 2.633-0.216l-0.093 0.013 27.36-3.52c3.392 6.82 6.743 12.529 10.431 17.992l-0.351-0.552-19.36 24.96c-2.217 2.876-3.553 6.53-3.553 10.496 0 5.634 2.696 10.638 6.869 13.793l0.043 0.031 44.8 35.040c2.896 2.176 6.552 3.485 10.513 3.485 5.581 0 10.555-2.597 13.779-6.649l0.028-0.036 19.84-25.44c3.627 1.225 8.35 2.495 13.164 3.517l0.916 0.163 3.52 28.48c1.071 8.52 8.27 15.044 16.994 15.044 0.835 0 1.655-0.060 2.458-0.175l56.548-6.709c8.602-1.165 15.163-8.462 15.163-17.291 0-0.729-0.045-1.448-0.132-2.154l0.008 0.085-3.68-28.64c5.046-2.358 9.294-4.758 13.341-7.437l-0.381 0.237 20.96 16c2.756 2.316 6.344 3.723 10.26 3.723 0.897 0 1.776-0.074 2.633-0.216l-0.093 0.013c4.714-0.584 8.77-3.009 11.491-6.521l0.029-0.039 34.88-44.96c2.288-2.865 3.671-6.54 3.671-10.538 0-0.798-0.055-1.582-0.162-2.351l0.010 0.089c-0.444-4.755-2.908-8.857-6.514-11.488l-0.046-0.032-19.84-16c1.761-4.404 3.516-9.902 4.921-15.538l0.199-0.942 26.56-3.36c8.602-1.165 15.163-8.462 15.163-17.291 0-0.729-0.045-1.448-0.132-2.154l0.008 0.085-6.88-56.32c-1.082-8.598-8.348-15.182-17.152-15.182-0.778 0-1.545 0.051-2.296 0.151l0.088-0.010-25.6 3.2c-3.301-6.999-6.713-12.926-10.54-18.547l0.3 0.467 17.92-23.040c2.25-2.908 3.607-6.606 3.607-10.621 0-5.54-2.583-10.477-6.611-13.671l-0.036-0.028-45.44-35.68c-2.885-2.193-6.537-3.513-10.497-3.513-0.812 0-1.611 0.056-2.394 0.163l0.091-0.010c-4.755 0.444-8.857 2.908-11.488 6.514l-0.032 0.046-17.92 24.64c-5.441-1.883-12.012-3.551-18.761-4.694l-0.759-0.106-3.36-27.84c-0.714-4.708-3.172-8.74-6.681-11.491l-0.039-0.029c-2.819-2.215-6.419-3.552-10.33-3.552-0.362 0-0.722 0.011-1.078 0.034l0.049-0.002zM487.040 608.96v0zM458.080 802.080c-9.88-7.804-16.163-19.783-16.163-33.23 0-9.763 3.312-18.752 8.874-25.906l-0.071 0.095c7.76-8.945 19.144-14.57 31.842-14.57 23.24 0 42.080 18.84 42.080 42.080 0 8.984-2.815 17.31-7.611 24.144l0.090-0.135c-7.771 9.973-19.783 16.327-33.279 16.327-9.747 0-18.721-3.314-25.855-8.877l0.094 0.070z" />
<glyph unicode="&#xe903;" glyph-name="gear-alt" d="M372.96-54.88h-103.040c-12.636 0-22.88 10.244-22.88 22.88v0 62.56c-14.075 5.010-25.953 10.406-37.296 16.655l1.296-0.655-45.44-44.96c-4.138-3.998-9.781-6.462-16-6.462s-11.862 2.464-16.007 6.468l0.007-0.006-73.28 72.8c-4.106 4.097-6.664 9.744-6.72 15.989v0.011c0.064 6.225 2.553 11.857 6.566 16.006l47.994 47.994c-4.194 8.462-8.317 18.685-11.705 29.239l-0.455 1.641h-56.96c-0.048 0-0.104-0.001-0.161-0.001-12.58 0-22.789 10.153-22.879 22.712v103.369c0 12.636 10.244 22.88 22.88 22.88v0h57.12c5.251 17.075 11.607 31.806 19.329 45.672l-0.609-1.192-44.48 43.84c-3.998 4.138-6.462 9.781-6.462 16s2.464 11.862 6.468 16.007l-0.006-0.007 73.76 73.44c4.17 3.927 9.803 6.34 16 6.34s11.83-2.413 16.012-6.351l-0.012 0.011 45.6-45.44c9.402 4.619 20.794 9.178 32.546 12.929l1.854 0.511v58.080c0 0 0 0 0 0.001 0 12.668 10.224 22.949 22.871 23.039h103.049c12.688-0.090 22.95-10.352 23.040-23.031v-58.089c13.668-4.43 25.154-9.198 36.18-14.746l-1.46 0.666 38.24 38.080c4.105 4.073 9.759 6.589 16 6.589s11.895-2.517 16.001-6.591l-0.001 0.001 73.12-72c4.079-4.114 6.628-9.751 6.72-15.982v-0.018c-0.037-6.259-2.6-11.912-6.719-15.999l-36.481-36.481c6.207-11.080 12.045-24.080 16.75-37.609l0.53-1.751h54.4c12.636 0 22.88-10.244 22.88-22.88v0-103.2c0-12.636-10.244-22.88-22.88-22.88h-52.8c-5.288-17.18-11.588-31.964-19.203-45.928l0.643 1.288 41.6-41.6c3.998-4.138 6.462-9.781 6.462-16s-2.464-11.862-6.468-16.007l0.006 0.007-72.96-72.96c-4.105-4.073-9.759-6.589-16-6.589s-11.895 2.517-16.001 6.591l-43.199 43.199c-12.397-6.029-27.025-11.494-42.215-15.59l-1.785-0.41v-59.2c-0.089-12.657-10.37-22.882-23.039-22.882-0.113 0-0.225 0.001-0.338 0.002h0.017zM208 73.12l6.88-4.32c13.094-7.905 28.221-14.943 44.114-20.317l1.646-0.483 7.2-2.24v-77.76c0-1.149 0.931-2.080 2.080-2.080h103.040c0.048-0.004 0.104-0.006 0.16-0.006 1.149 0 2.080 0.931 2.080 2.080 0 0.002 0 0.004 0 0.006v0 73.28l7.84 1.92c20.518 5.071 38.529 12.205 55.254 21.391l-1.174-0.591 6.72 3.68 54.080-54.080c0.398-0.369 0.933-0.595 1.52-0.595s1.122 0.226 1.521 0.596l-0.001-0.001 72.8 72.96c0.369 0.398 0.595 0.933 0.595 1.52s-0.226 1.122-0.596 1.521l-52.799 52.799 4 6.88c9.24 15.645 16.949 33.727 22.192 52.828l0.368 1.572 2.080 7.68h68.64c1.149 0 2.080 0.931 2.080 2.080v0 102.88c0 1.149-0.931 2.080-2.080 2.080v0h-69.76l-2.24 7.52c-5.708 18.734-13.050 35.013-22.153 50.109l0.553-0.989-4 7.040 48 48c0.338 0.41 0.543 0.941 0.543 1.52s-0.205 1.11-0.546 1.524l0.003-0.004-72.64 72.48c-0.354 0.399-0.868 0.65-1.44 0.65s-1.086-0.251-1.438-0.648l-48.962-48.962-6.88 3.68c-12.904 7.144-27.879 13.359-43.579 17.862l-1.541 0.378-8.16 1.44v74.080c0 1.237-1.003 2.24-2.24 2.24v0h-103.040c-0.002 0-0.004 0-0.006 0-1.149 0-2.080-0.931-2.080-2.080 0-0.056 0.002-0.112 0.007-0.167v0.007-74.080l-7.68-2.080c-17.211-4.715-32.145-10.665-46.215-18.039l1.255 0.599-6.88-3.68-56.48 56.48c-0.323 0.455-0.847 0.748-1.44 0.748s-1.117-0.293-1.436-0.743l-0.004-0.005-72.8-72.96c-0.291-0.426-0.464-0.953-0.464-1.52s0.174-1.094 0.47-1.529l-0.006 0.009 55.040-55.040-4-6.88c-9.309-15.596-17.118-33.612-22.495-52.647l-0.385-1.593-2.080-7.68h-72c-1.149 0-2.080-0.931-2.080-2.080v0-103.36c0-1.149 0.931-2.080 2.080-2.080v0h72.96l2.080-7.52c4.548-15.662 9.992-29.142 16.602-41.92l-0.602 1.28 3.52-6.72-58.72-58.88c-0.291-0.426-0.464-0.953-0.464-1.52s0.174-1.094 0.47-1.529l-0.006 0.009 72.96-73.12c0.398-0.369 0.933-0.595 1.52-0.595s1.122 0.226 1.521 0.596l-0.001-0.001zM330.56 156.64c-56.352 2.267-101.177 48.499-101.177 105.2s44.825 102.934 100.972 105.193l0.205 0.007c0.010 0 0.022 0 0.033 0 28.985 0 55.196-11.875 74.033-31.026l0.014-0.014c18.978-19.039 30.712-45.309 30.712-74.32s-11.734-55.281-30.715-74.323l0.003 0.003c-18.943-18.979-45.132-30.721-74.064-30.721-0.118 0-0.236 0-0.355 0.001h0.018zM330.56 346.24c-0.033 0-0.073 0-0.113 0-46.657 0-84.48-37.823-84.48-84.48s37.823-84.48 84.48-84.48c46.657 0 84.48 37.823 84.48 84.48 0 23.3-9.433 44.398-24.689 59.681l0.001-0.001c-15.172 15.318-36.209 24.802-59.462 24.802-0.189 0-0.378-0.001-0.567-0.002h0.029zM828.8 318.72h-67.36c-10.27 0.091-18.56 8.437-18.56 18.719 0 0 0 0 0 0.001v0 38.4c-7.61 2.575-14.007 5.333-20.139 8.53l0.779-0.37-27.84-27.2c-3.335-3.36-7.955-5.44-13.061-5.44-0.021 0-0.041 0-0.062 0h0.003c-0.017 0-0.038 0-0.059 0-5.106 0-9.727 2.080-13.060 5.439l-48.001 48.001c-3.395 3.34-5.499 7.984-5.499 13.12s2.104 9.78 5.497 13.118l0.002 0.002 29.76 29.92c-2.24 4.96-4.32 10.080-6.24 15.2h-34.56c-10.090 0.176-18.224 8.31-18.4 18.383v67.377c0 10.25 8.31 18.56 18.56 18.56v0h34.080c3.273 9.761 6.843 18.010 11.010 25.895l-0.45-0.935-26.72 26.72c-3.404 3.366-5.513 8.037-5.513 13.2s2.108 9.834 5.511 13.198l48.002 48.002c3.358 3.356 7.997 5.432 13.12 5.432s9.762-2.076 13.12-5.432l28-28c4.874 2.38 10.958 4.87 17.206 7.006l1.194 0.354v34.080c-0.011 0.24-0.017 0.521-0.017 0.803 0 10.25 8.31 18.56 18.56 18.56 0.119 0 0.237-0.001 0.355-0.003h67.342c9.994-0.434 17.932-8.642 17.932-18.703 0-0.231-0.004-0.461-0.012-0.69l0.001 0.033v-35.2c7.342-2.468 13.424-5.011 19.292-7.92l-0.892 0.4 23.2 23.2c3.392 3.281 8.020 5.304 13.12 5.304s9.728-2.022 13.125-5.309l47.995-47.995c3.328-3.401 5.381-8.061 5.381-13.2s-2.053-9.799-5.385-13.203l-21.917-21.917c3.194-5.891 6.376-12.963 9.065-20.274l0.375-1.166h32.96c9.803-0.069 17.795-7.727 18.397-17.387l0.003-0.053v-67.52c0-10.25-8.31-18.56-18.56-18.56v0h-32c-3.212-9.761-6.732-18.014-10.849-25.905l0.449 0.945 25.28-25.44c3.395-3.34 5.499-7.984 5.499-13.12s-2.104-9.78-5.497-13.118l-48.002-48.002c-3.358-3.356-7.997-5.432-13.12-5.432s-9.762 2.076-13.12 5.432v0l-26.080 26.72c-6.818-3.351-14.939-6.508-23.348-8.993l-1.132-0.287v-34.56c-0.090-10.302-8.418-18.63-18.711-18.72h-0.009zM763.68 339.52h63.040v48l7.84 1.92c13.109 3.154 24.626 7.603 35.346 13.345l-0.786-0.385 6.72 3.68 36.16-34.88 44 44.8-34.88 35.040 4 6.88c5.938 9.989 10.862 21.533 14.174 33.74l0.226 0.98 2.080 7.68h45.44v62.72h-46.080l-2.24 7.52c-3.583 12.194-8.267 22.808-14.117 32.649l0.357-0.649-4 5.44 32 32-44.48 44.48-32-32-7.68 3.52c-8.231 4.507-17.792 8.434-27.808 11.279l-0.992 0.241-8 2.56v48h-62.56v-48l-7.68-2.080c-10.945-3.084-20.452-7.010-29.366-11.884l0.726 0.364-6.88-3.68-37.12 37.28-44.64-44.48 36.48-36.48-4-6.88c-6.033-9.991-11.012-21.535-14.338-33.761l-0.222-0.959-2.24-7.68h-48v-63.84h48l2.080-7.36c3.381-9.578 7.106-17.71 11.455-25.443l-0.415 0.803 3.52-6.88-38.88-39.52 44.64-44.48 37.44 37.6 6.88-4.32c8.448-5.166 18.191-9.669 28.46-13.005l0.98-0.275 7.2-2.4zM800.96 457.28c-0.011 0-0.023 0-0.036 0-39.941 0-72.32 32.379-72.32 72.32s32.379 72.32 72.32 72.32c39.941 0 72.32-32.379 72.32-72.32 0-20.001-8.12-38.106-21.243-51.199l-0.001-0.001c-13.008-13.047-31-21.12-50.877-21.12-0.057 0-0.115 0-0.172 0h0.009zM800.96 581.28c-0.010 0-0.022 0-0.034 0-28.542 0-51.68-23.138-51.68-51.68 0-14.24 5.759-27.134 15.075-36.481l-0.001 0.001c9.487-9.065 22.372-14.644 36.56-14.644s27.073 5.579 36.58 14.663l-0.020-0.019c9.276 9.363 15.008 22.252 15.008 36.48s-5.732 27.117-15.012 36.484l0.004-0.004c-9.31 9.388-22.213 15.2-36.473 15.2-0.002 0-0.005 0-0.007 0v0zM487.040 588.16h-2.24l-56.48 7.040c-8.602 1.165-15.163 8.462-15.163 17.291 0 0.729 0.045 1.448 0.132 2.154l-0.008-0.085 3.84 31.2c-4.48 2.4-9.12 5.28-13.44 8.16l-25.28-19.52c-2.865-2.288-6.54-3.671-10.538-3.671-0.798 0-1.582 0.055-2.351 0.162l0.089-0.010c-4.755 0.444-8.857 2.908-11.488 6.514l-0.032 0.046-35.040 44.96c-2.26 3.003-3.619 6.795-3.619 10.905 0 0.668 0.036 1.327 0.106 1.976l-0.007-0.081c0.638 4.698 3.048 8.737 6.523 11.492l0.037 0.028 27.36 21.28c-1.12 3.68-2.24 7.52-3.040 11.36l-28.16 3.52c-8.236 1.498-14.399 8.616-14.399 17.173 0 0.828 0.058 1.642 0.169 2.439l-0.011-0.092 7.040 56.64c0.68 4.719 3.147 8.761 6.679 11.49l0.041 0.030c2.756 2.316 6.344 3.723 10.26 3.723 0.897 0 1.776-0.074 2.633-0.216l-0.093 0.013 27.36-3.52c3.392 6.82 6.743 12.529 10.431 17.992l-0.351-0.552-19.36 24.96c-2.217 2.876-3.553 6.53-3.553 10.496 0 5.634 2.696 10.638 6.869 13.793l0.043 0.031 44.8 35.040c2.896 2.176 6.552 3.485 10.513 3.485 5.581 0 10.555-2.597 13.779-6.649l0.028-0.036 19.84-25.44c3.627 1.225 8.35 2.495 13.164 3.517l0.916 0.163 3.52 28.48c1.071 8.52 8.27 15.044 16.994 15.044 0.835 0 1.655-0.060 2.458-0.175l56.548-6.709c8.602-1.165 15.163-8.462 15.163-17.291 0-0.729-0.045-1.448-0.132-2.154l0.008 0.085-3.68-28.64c5.046-2.358 9.294-4.758 13.341-7.437l-0.381 0.237 20.96 16c2.756 2.316 6.344 3.723 10.26 3.723 0.897 0 1.776-0.074 2.633-0.216l-0.093 0.013c4.714-0.584 8.77-3.009 11.491-6.521l0.029-0.039 34.88-44.96c2.288-2.865 3.671-6.54 3.671-10.538 0-0.798-0.055-1.582-0.162-2.351l0.010 0.089c-0.444-4.755-2.908-8.857-6.514-11.488l-0.046-0.032-19.84-16c1.761-4.404 3.516-9.902 4.921-15.538l0.199-0.942 26.56-3.36c8.602-1.165 15.163-8.462 15.163-17.291 0-0.729-0.045-1.448-0.132-2.154l0.008 0.085-6.88-56.32c-1.082-8.598-8.348-15.182-17.152-15.182-0.778 0-1.545 0.051-2.296 0.151l0.088-0.010-25.6 3.2c-3.301-6.999-6.713-12.926-10.54-18.547l0.3 0.467 17.92-23.040c2.25-2.908 3.607-6.606 3.607-10.621 0-5.54-2.583-10.477-6.611-13.671l-0.036-0.028-45.44-35.68c-2.885-2.193-6.537-3.513-10.497-3.513-0.812 0-1.611 0.056-2.394 0.163l0.091-0.010c-4.755 0.444-8.857 2.908-11.488 6.514l-0.032 0.046-17.92 24.64c-5.441-1.883-12.012-3.551-18.761-4.694l-0.759-0.106-3.36-27.84c-0.714-4.708-3.172-8.74-6.681-11.491l-0.039-0.029c-2.819-2.215-6.419-3.552-10.33-3.552-0.362 0-0.722 0.011-1.078 0.034l0.049-0.002zM487.040 608.96v0zM433.92 615.52l49.6-6.24 5.12 40.48 8.16 0.8c11.555 1.244 22.119 3.782 32.112 7.497l-0.912-0.297 7.2 2.88 24.8-33.28 39.52 30.56-25.12 32.8 4.8 6.4c6.214 7.853 11.58 16.813 15.706 26.43l0.294 0.77 3.040 7.36 37.76-4.8 6.24 49.76-38.24 4.8-1.28 7.68c-1.94 10.133-4.931 19.136-8.933 27.567l0.293-0.687-3.040 7.52 29.44 22.88-30.72 40-29.76-23.52-6.24 4.48c-6.65 4.768-14.234 9.007-22.279 12.359l-0.761 0.281-7.36 3.040 4.64 40.48-49.76 6.24-4.96-40.48-7.84-1.12c-9.397-1.455-17.799-3.741-25.793-6.844l0.833 0.284-7.2-2.72-26.56 34.88-38.72-30.72 25.6-35.040-4.8-6.24c-6.136-7.866-11.494-16.818-15.686-26.396l-0.314-0.804-3.040-7.36-39.52 4.96-6.24-49.6 40-5.12 1.12-7.68c1.419-8.562 3.477-16.149 6.2-23.411l-0.28 0.851 2.72-7.2-36.16-27.36 30.4-39.52 35.2 27.2 6.4-4.96c6.642-5.265 14.156-9.961 22.17-13.776l0.71-0.304 6.88-3.2zM484 706.080h-8c-31.16 4.062-54.975 30.44-54.975 62.381 0 20.104 9.435 38.005 24.118 49.515l0.137 0.103c10.498 8.15 23.861 13.066 38.373 13.066 20.109 0 38.013-9.439 49.524-24.129l0.104-0.137c8.264-10.523 13.254-23.959 13.254-38.56 0-34.63-28.066-62.705-62.692-62.72h-0.001zM458.080 802.080c-9.88-7.804-16.163-19.783-16.163-33.23 0-9.763 3.312-18.752 8.874-25.906l-0.071 0.095c7.76-8.945 19.144-14.57 31.842-14.57 23.24 0 42.080 18.84 42.080 42.080 0 8.984-2.815 17.31-7.611 24.144l0.090-0.135c-7.771 9.973-19.783 16.327-33.279 16.327-9.747 0-18.721-3.314-25.855-8.877l0.094 0.070z" />
<glyph unicode="&#xe904;" glyph-name="copy" d="M753.015 936h-447.675c-30.045 0-54.51-24.075-54.51-53.631v-30.76h383.731l155.249-165.904v-624.689h63.928c30.077 0 54.526 24.091 54.526 53.631v655.449l-155.249 165.904zM750.217 766.16v103.44l96.705-103.44h-96.705zM617.921 834.984h-447.675c-30.045 0-54.51-24.075-54.51-53.631v-767.738c0-29.524 24.465-53.615 54.51-53.615h548.414c30.061 0 54.526 24.091 54.526 53.631v655.449l-155.265 165.904zM631.341 226.79h-388.985c-9.5 0-17.194 7.58-17.194 16.917 0 9.305 7.694 16.885 17.194 16.885h388.985c9.435 0 17.129-7.58 17.129-16.885 0-9.321-7.694-16.917-17.129-16.917zM631.341 338.379h-388.985c-9.5 0-17.194 7.597-17.194 16.885 0 9.353 7.694 16.934 17.194 16.934h388.985c9.435 0 17.129-7.58 17.129-16.934 0-9.272-7.694-16.885-17.129-16.885zM631.341 448.13h-388.985c-9.5 0-17.194 7.58-17.194 16.869 0 9.337 7.694 16.885 17.194 16.885h388.985c9.435 0 17.129-7.548 17.129-16.885 0-9.288-7.694-16.869-17.129-16.869zM631.341 561.558h-388.985c-9.5 0-17.194 7.597-17.194 16.934 0 9.288 7.694 16.869 17.194 16.869h388.985c9.435 0 17.129-7.58 17.129-16.869 0-9.337-7.694-16.934-17.129-16.934zM615.123 665.144v103.44l96.705-103.44h-96.705z" />
<glyph unicode="&#xe905;" glyph-name="copy-alt" d="M752.942 935.993h-448.684c-30.11 0-54.623-24.123-54.623-53.745v-28.581h45.905v28.564c0 4.75 3.92 8.589 8.719 8.589h415.646v-130.8c0-12.428 10.346-22.513 23.017-22.513h119.706v-624.64c0-4.782-3.92-8.654-8.735-8.654h-62.757v-45.14h62.741c30.126 0 54.64 24.123 54.64 53.745v656.897l-155.574 166.278zM765.874 782.598v72.923l68.174-72.923h-68.174zM618.774 836.896h-448.651c-30.11 0-54.64-24.107-54.64-53.745v-769.414c0-29.622 24.53-53.729 54.64-53.729h549.602c30.126 0 54.656 24.107 54.656 53.729v656.881l-155.607 166.278zM631.723 756.425l68.174-72.907h-68.174v72.907zM728.461 13.786c0-4.782-3.904-8.654-8.735-8.654h-549.602c-4.799 0-8.719 3.871-8.719 8.654v769.348c0 4.75 3.92 8.605 8.719 8.605h415.63v-130.8c0-12.444 10.362-22.529 23.017-22.529h119.706v-624.624zM242.38 596.719h389.847c9.467 0 17.178-7.597 17.178-16.917 0-9.353-7.71-16.966-17.178-16.966h-389.847c-9.516 0-17.226 7.597-17.226 16.966 0 9.321 7.727 16.917 17.226 16.917zM649.405 466.081c0-9.305-7.71-16.917-17.178-16.917h-389.847c-9.516 0-17.226 7.597-17.226 16.917 0 9.353 7.71 16.934 17.226 16.934h389.847c9.467 0 17.178-7.564 17.178-16.934zM649.405 356.118c0-9.321-7.71-16.934-17.178-16.934h-389.847c-9.516 0-17.226 7.597-17.226 16.934 0 9.353 7.71 16.966 17.226 16.966h389.847c9.467 0 17.178-7.597 17.178-16.966zM649.405 244.318c0-9.386-7.71-16.982-17.178-16.982h-389.847c-9.516 0-17.226 7.597-17.226 16.982 0 9.305 7.71 16.901 17.226 16.901h389.847c9.467 0 17.178-7.58 17.178-16.901z" />
<glyph unicode="&#xe906;" glyph-name="caret-down" horiz-adv-x="1072" d="M536-12.729l-518.012 921.457h1036.026l-259.007-460.729z" />
<glyph unicode="&#xe92b;" glyph-name="user" d="M934.796 156.199l-3.433-4.137c-111.772-134.167-260.719-208.061-419.352-208.061-158.564 0-307.601 73.894-419.488 208.061l-3.319 4.137 0.795 5.116c21.644 140.944 95.175 254.057 207.266 318.812l7.912 4.569 6.412-6.616c52.953-55.5 124.096-86.149 200.423-86.149 76.28 0 147.447 30.671 200.399 86.149l6.298 6.616 8.026-4.569c111.978-64.753 185.621-177.868 207.266-318.811l0.795-5.116zM512.033 448.568c138.738 0 251.648 112.886 251.648 251.67 0 138.874-112.886 251.762-251.648 251.762-138.783 0-251.67-112.886-251.67-251.648 0-138.783 112.886-251.784 251.67-251.784v0z" />
<glyph unicode="&#xe93f;" glyph-name="caret-right" d="M941.108 448l-858.215-480v960l429.107-240z" />
<glyph unicode="&#xe94a;" glyph-name="circle" d="M1000 448c0-269.515-218.484-488-488-488s-488 218.484-488 488c0 269.515 218.484 488 488 488s488-218.484 488-488z" />
<glyph unicode="&#xe94c;" glyph-name="circle-alt" d="M512-56c-277.918 0-504 226.106-504 504s226.083 504 504 504 504-226.106 504-504c0-277.894-226.083-504-504-504zM512 934.98c-268.522 0-486.98-218.457-486.98-486.98s218.457-486.98 486.98-486.98 486.98 218.457 486.98 486.98-218.457 486.98-486.98 486.98z" />
<glyph unicode="&#xe950;" glyph-name="undo" horiz-adv-x="1072" d="M564.133 926.424c-146.797 0-286.954-65.334-379.681-175.712l-167.109 81.397 101.821-295.021 295.021 101.729-162.001 78.904c78.854 85.711 192.756 136.050 311.924 136.050 230.411 0 417.874-182.030 417.874-405.748 0-223.743-187.461-405.748-417.874-405.748s-417.85 181.983-417.85 405.726h-72.678c0-263.822 220.057-478.425 490.548-478.425s490.527 214.604 490.527 478.425c0 263.799-220.057 478.425-490.527 478.425z" />
<glyph unicode="&#xe964;" glyph-name="pen-alt" d="M768.237 929.823c-50.769 29.248-115.66 11.779-144.908-38.967l-35.312-61.26 183.874-105.918 35.312 61.26c29.156 50.769 11.803 115.636-38.967 144.884zM204.483 174.278l-1.827-3.137 3.935-219.141 191.555 106.549 340.187 590.452-195.514 112.616-338.337-587.337zM702.599 639.398l-323.49-561.484-147.109-81.845-3.021 168.301 323.467 561.506 150.153-86.48z" />
<glyph unicode="&#xe96f;" glyph-name="times" d="M46.578 772.567l324.567-324.567-324.567-324.567c-30.102-30.102-30.102-78.942 0-109.040l31.814-31.814c30.102-30.102 78.942-30.102 109.040 0l324.567 324.567 324.567-324.567c30.102-30.102 78.942-30.102 109.040 0l31.814 31.814c30.102 30.102 30.102 78.942 0 109.040l-324.567 324.567 324.567 324.567c30.102 30.102 30.102 78.942 0 109.040l-31.814 31.814c-30.102 30.102-78.942 30.102-109.040 0l-324.567-324.567-324.567 324.567c-30.102 30.102-78.942 30.102-109.040 0l-31.814-31.814c-30.102-30.102-30.102-78.942 0-109.040z" />
<glyph unicode="&#xe97f;" glyph-name="search-alt" horiz-adv-x="1072" d="M843.292 754.726c-56.214 56.214-131.093 87.183-210.81 87.183s-154.597-30.947-210.787-87.183c-34.656-34.632-60.4-77.478-74.448-123.92-8.483-28.051-12.781-57.345-12.781-87.025 0-79.718 30.947-154.55 87.16-210.742 56.193-56.214 131.046-87.16 210.742-87.16 29.679 0 58.906 4.275 86.911 12.758 46.466 14.026 89.355 39.77 124.033 74.471 116.228 116.253 116.228 305.39-0.023 421.621zM831.278 344.868c-32.689-32.689-73.113-56.961-116.93-70.217-26.398-7.964-53.953-12.012-81.868-12.012-75.262 0-145.91 29.228-198.98 82.275-53.070 53.093-82.298 123.739-82.298 198.98 0 27.984 4.050 55.582 12.035 82.026 13.279 43.75 37.53 84.106 70.194 116.774 53.047 53.047 123.671 82.252 198.912 82.252 75.217 0 145.863-29.228 198.933-82.252 109.669-109.669 109.669-288.131 0-397.823zM737.965 740.543c-28.526 12.058-58.59 18.189-89.332 18.189-92.84 0-176.131-55.129-212.257-140.434-2.329-5.452-2.352-11.493-0.112-16.989 2.24-5.52 6.471-9.839 11.922-12.148 2.578-1.085 5.362-1.651 8.257-1.651 9.048 0 17.442 5.407 20.858 13.46 29.136 68.815 96.345 113.311 171.2 113.311 24.837 0 49.111-4.954 72.118-14.681 2.601-1.085 5.384-1.651 8.278-1.651 9.072 0 17.463 5.407 20.879 13.46 4.773 11.288-0.521 24.363-11.809 29.136zM915.475 826.912c-75.488 75.511-176.041 117.088-283.13 117.088-107.044 0-207.62-41.577-283.13-117.088-128.874-128.897-153.667-327.582-60.060-483.716 0.814-1.787 2.059-4.48-0.112-7.715l-236.033-236.033c-8.755-8.71-13.549-20.313-13.549-32.666s4.796-23.957 13.549-32.666l68.566-68.566c8.755-8.732 20.337-13.549 32.689-13.549 12.328 0 23.934 4.796 32.643 13.549l54.949 54.835c5.158 3.959 10.021 8.234 14.5 12.714l165.906 165.883c1.854 1.879 3.845 2.827 5.95 2.827l3.348-0.702 0.995-0.951c61.869-37.009 132.245-56.554 203.504-56.554 104.715 0 203.955 41.577 279.421 117.067 156.088 156.111 156.088 410.129 0 566.24zM903.645 272.48c-72.322-72.322-167.376-112.157-267.613-112.157-68.385 0-135.955 18.843-195.337 54.472-0.566 0.361-5.905 3.393-12.962 3.393-6.515 0-12.488-2.533-17.306-7.374l-165.906-165.883c-4.094-4.117-8.643-8.076-13.030-11.356l-56.394-56.193c-5.315-5.339-12.918-8.415-20.834-8.415s-15.519 3.054-20.858 8.394l-68.589 68.589c-5.564 5.587-8.643 12.986-8.643 20.834s3.075 15.247 8.643 20.834l236.623 236.667c8.325 10.248 5.113 22.372 1.9 27.869-90.87 151.474-67.683 337.513 57.707 462.926 72.343 72.343 168.712 112.181 271.3 112.181s198.956-39.835 271.3-112.181c149.575-149.575 149.575-393.003 0-542.599z" />
<glyph unicode="&#xe989;" glyph-name="trash-alt" d="M635.545 103.6h31.883c15.649 0 28.383 12.713 28.383 28.361v394.583c0 15.649-12.713 28.383-28.383 28.383h-31.883c-15.649 0-28.383-12.736-28.383-28.383v-394.583c0-15.626 12.736-28.361 28.383-28.361zM624.075 526.543c0 6.345 5.148 11.494 11.471 11.494h31.883c6.322 0 11.494-5.172 11.494-11.494v-394.583c0-6.322-5.172-11.471-11.494-11.471h-31.883c-6.322 0-11.471 5.148-11.471 11.471v394.583zM496.047 103.6h31.883c15.649 0 28.361 12.713 28.361 28.361v394.583c0 15.649-12.713 28.383-28.361 28.383h-31.883c-15.649 0-28.361-12.736-28.361-28.383v-394.583c0-15.626 12.713-28.361 28.361-28.361zM484.576 526.543c0 6.345 5.148 11.494 11.471 11.494h31.883c6.322 0 11.471-5.172 11.471-11.494v-394.583c0-6.322-5.148-11.471-11.471-11.471h-31.883c-6.322 0-11.471 5.148-11.471 11.471v394.583zM225.452 7.117c1.287-30.911 26.532-55.118 57.489-55.118h458.1c30.934 0 56.179 24.183 57.489 55.072l33.125 699.478h-639.349l33.147-699.434zM781.637 7.839c-0.926-21.835-18.763-38.951-40.598-38.951h-458.1c-21.857 0-39.672 17.139-40.598 38.972l-32.289 681.777h603.875l-32.289-681.798zM356.549 103.6h31.883c15.649 0 28.383 12.713 28.383 28.361v394.583c0 15.649-12.713 28.383-28.383 28.383h-31.883c-15.649 0-28.361-12.736-28.361-28.383v-394.583c-0.023-15.626 12.713-28.361 28.361-28.361zM345.056 526.543c0 6.345 5.148 11.494 11.471 11.494h31.883c6.322 0 11.471-5.172 11.471-11.494v-394.583c0-6.322-5.148-11.471-11.471-11.471h-31.883c-6.322 0-11.471 5.148-11.471 11.471v394.583zM844.567 893.737h-202.901v31.522c0 10.341-8.401 18.742-18.718 18.742h-221.936c-10.341 0-18.742-8.401-18.742-18.742v-31.499h-202.857c-21.631 0-39.243-17.612-39.243-39.243v-105.178h743.666v105.154c-0.023 21.654-17.612 39.243-39.267 39.243zM866.921 766.228h-709.865v88.287c0 12.328 10.025 22.353 22.353 22.353h219.792v50.217h225.594v-50.262h219.792c12.307 0 22.353-10.025 22.353-22.332v-88.264z" />
<glyph unicode="&#xe992;" glyph-name="user-group-alt" horiz-adv-x="1072" d="M478.526 330.642l-12.31 6.994-9.711-10.207c-34.473-36.127-80.735-56.022-130.282-56.022-49.57 0-95.833 19.895-130.353 56.091l-9.829 10.136-12.192-7.041c-79.579-45.955-131.818-126.194-147.129-225.926l-1.229-7.868 5.151-6.427c78.727-94.393 183.68-146.373 295.58-146.373s216.83 51.981 295.486 146.42l5.222 6.309-1.229 7.963c-15.287 99.661-67.552 179.9-147.176 225.951zM326.246-35.987c-105.616 0-204.922 49.216-279.585 138.457 14.436 92.667 62.637 167.166 135.882 210.025 38.158-39.41 89.123-61.101 143.703-61.101 54.556 0 105.497 21.69 143.679 61.101 73.198-42.883 121.423-117.358 135.882-209.931-74.734-89.36-173.97-138.552-279.563-138.552zM326.246 300.469c95.124 0 172.481 77.38 172.481 172.505 0 95.149-77.38 172.576-172.481 172.576-95.124 0-172.505-77.38-172.505-172.481-0.023-95.172 77.38-172.599 172.505-172.599zM326.246 625.537c84.067 0 152.469-68.425 152.469-152.562 0-84.090-68.401-152.492-152.469-152.492-84.090 0-152.492 68.45-152.492 152.562 0 84.090 68.401 152.492 152.492 152.492zM501.704 671.162c77.403 0 140.372 62.991 140.372 140.395 0 77.451-62.968 140.443-140.372 140.443-77.428 0-140.395-62.968-140.395-140.372 0-77.451 62.968-140.465 140.395-140.465zM501.704 931.987c66.371 0 120.36-54.013 120.36-120.43 0-66.371-53.989-120.382-120.36-120.382s-120.382 54.037-120.382 120.453c0 66.347 53.989 120.36 120.382 120.36zM1045.398 200.194c-12.38 80.594-54.626 145.475-119.060 182.736l-11.223 6.403-8.86-9.31c-27.266-28.589-63.888-44.349-103.109-44.349s-75.844 15.736-103.158 44.396l-8.955 9.262-11.128-6.427c-43.097-24.904-77.025-63.37-98.125-111.262l-2.316-5.268 3.378-4.654c29.251-40.166 49.146-87.35 59.187-140.277l0.803-4.3 3.709-2.316c47.822-29.983 101.977-45.837 156.603-45.837 90.375 0 175.104 41.962 238.614 118.186l4.75 5.741-1.109 7.277zM803.145 89.002c-49.476 0-98.598 13.987-142.308 40.521-10.443 52.027-30.054 98.811-58.407 139.191 19.068 40.686 48.365 73.553 85.082 95.432 30.881-31.306 71.828-48.508 115.634-48.508s84.727 17.201 115.609 48.508c57.249-34.095 95.006-92.667 106.608-165.37-59.495-70.788-138.364-109.774-222.217-109.774zM665.632 495.468c0-75.844 61.692-137.561 137.489-137.561s137.489 61.692 137.489 137.489c0 75.844-61.668 137.536-137.489 137.536-75.798 0.023-137.489-61.645-137.489-137.465zM803.145 612.944c64.763 0 117.475-52.713 117.475-117.524 0-64.787-52.69-117.475-117.475-117.475s-117.475 52.737-117.475 117.547c0 64.739 52.69 117.453 117.475 117.453zM529.184 460.002c0-25.115-4.654-49.759-13.845-73.246l-5.812-14.861 15.902 1.252c47.067 3.662 75.183 17.673 120.382 47.705l7.207 4.773-3.686 7.82c-18.405 39.128-16.988 89.455 3.781 134.677 13.68 29.771 34.496 52.996 51.792 57.769l13.845 3.828-8.411 11.672c-19.492 27.077-43.498 40.946-71.285 57.012l-12.333 7.041-8.86-9.31c-27.289-28.589-63.888-44.349-103.109-44.349-24.077 0-83.5 3.567-115.16 36.764l-11.27 11.624-7.136-8.529c-2.717-3.26-7.725-8.671-10.325-10.443l-19.352-13.349 23.036-4.702c89.595-18.265 154.642-103.701 154.642-203.149zM514.747 631.775c43.781 0 84.727 17.201 115.634 48.532 22.257-12.877 40.615-23.651 55.879-40.805-19.116-11.034-37.946-33.859-51.343-63.015-10.679-23.25-31.945-82.366-7.207-143.585-33.645-21.95-56.517-33.386-88.367-38.087 6.545 21.124 9.854 43.002 9.854 65.188 0 69.512-29.228 132.835-76.104 174.797 15.736-2.363 30.315-3.024 41.655-3.024z" />
<glyph unicode="&#xe9ac;" glyph-name="caret-right-alt" d="M58.579-32v960l906.841-480-906.841-480zM100.837 857.812v-819.6l774.26 409.789-774.26 409.812z" />
<glyph unicode="&#xe9b3;" glyph-name="dashboard-alt" horiz-adv-x="1312" d="M656.002 853.619c-352.707 0-637.345-276.091-648.003-628.589l28.020-0.864c0.357 11.464 1.726 22.6 2.679 33.886 0.625-0.804 1.042-1.459 1.816-2.263 3.513-3.991 8.516-8.785 14.561-13.28 12.030-8.843 28.108-14.918 44.159-14.829 16.051-0.209 32.128 5.836 44.159 14.74 6.016 4.496 11.048 9.32 14.561 13.34 1.757 1.757 3.126 3.928 4.080 5.061 0.953 1.25 1.43 1.906 1.43 1.906s-0.506 0.656-1.43 1.906c-0.953 1.131-2.322 3.306-4.080 5.061-3.513 4.020-8.516 8.843-14.561 13.34-12.030 8.873-28.108 14.918-44.159 14.74-16.051 0.119-32.128-5.985-44.159-14.829-6.016-4.496-11.048-9.29-14.561-13.28-0.418-0.418-0.625-0.775-1.013-1.25 31.652 315.753 294.046 557.183 616.5 557.183 322.482 0 584.848-241.43 616.471-557.125-0.386 0.447-0.566 0.804-0.983 1.221-3.513 3.991-8.516 8.785-14.561 13.28-12.030 8.843-28.108 14.918-44.159 14.829-16.051 0.209-32.128-5.836-44.159-14.74-6.016-4.496-11.048-9.32-14.561-13.34-1.757-1.757-3.126-3.928-4.080-5.061-0.953-1.25-1.43-1.906-1.43-1.906s0.506-0.656 1.43-1.906c0.953-1.131 2.322-3.306 4.080-5.061 3.513-4.020 8.516-8.843 14.561-13.34 12.030-8.873 28.108-14.918 44.159-14.74 16.051-0.090 32.128 5.985 44.159 14.829 6.016 4.496 11.048 9.29 14.561 13.28 0.775 0.775 1.193 1.43 1.816 2.234 0.953-11.286 2.322-22.422 2.679-33.886l28.020 0.864c-10.659 352.498-295.297 628.589-648.003 628.589zM202.769 70.429h906.467v-28.050h-906.467v28.050zM540.378 251.948c-6.967-31.533-1.221-63.902 16.17-91.148 22.333-34.988 60.477-55.861 102.016-55.861 23.018 0 45.499 6.581 64.972 19.027 27.215 17.39 46.065 44.338 53.002 75.872 4.913 22.243 3.364 44.844-3.96 65.777l249.232 206.146-299.824-143.167c-18.819 11.643-40.646 18.253-63.632 18.253-23.018 0-45.499-6.581-64.972-19.027-27.246-17.39-46.065-44.338-53.002-75.872zM608.447 304.177c14.977 9.559 32.218 14.621 49.906 14.621 31.922 0 61.251-16.051 78.403-42.909 13.34-20.903 17.777-45.768 12.417-70.005s-19.801-44.934-40.705-58.273c-14.977-9.559-32.218-14.621-49.906-14.621-31.922 0-61.251 16.051-78.403 42.909-13.34 20.903-17.777 45.768-12.417 70.005s19.801 44.934 40.705 58.273zM649.035 699.227c1.757-1.757 3.928-3.126 5.061-4.080 1.25-0.923 1.906-1.43 1.906-1.43s0.656 0.506 1.906 1.43c1.131 0.953 3.306 2.322 5.061 4.080 4.020 3.513 8.843 8.516 13.34 14.561 8.873 12.030 14.918 28.108 14.74 44.159 0.119 16.051-5.985 32.128-14.829 44.159-4.496 6.016-9.29 11.048-13.28 14.561-1.757 1.757-3.901 3.126-5.032 4.080-1.25 0.923-1.906 1.43-1.906 1.43s-0.656-0.506-1.876-1.43c-1.131-0.953-3.306-2.322-5.032-4.080-3.991-3.513-8.785-8.516-13.28-14.561-8.843-12.030-14.918-28.108-14.829-44.159-0.209-16.051 5.836-32.128 14.74-44.159 4.466-6.016 9.29-11.048 13.311-14.561zM985.096 563.295c0 0 0.833-0.119 2.353-0.328 1.459-0.148 3.991-0.683 6.462-0.714 5.331-0.357 12.298-0.209 19.712 0.864 14.799 2.234 30.432 9.32 41.628 20.812 11.432 11.286 18.491 26.919 20.755 41.716 1.072 7.444 1.25 14.383 0.894 19.682 0 2.472-0.537 4.974-0.683 6.462-0.209 1.549-0.328 2.353-0.328 2.353s-0.833 0.119-2.353 0.328c-1.459 0.119-3.96 0.683-6.462 0.683-5.297 0.328-12.237 0.18-19.682-0.894-14.769-2.263-30.432-9.32-41.716-20.755-11.494-11.196-18.581-26.858-20.812-41.628-1.072-7.444-1.221-14.412-0.864-19.712 0-2.501 0.566-5.003 0.714-6.462 0.267-1.578 0.386-2.412 0.386-2.412zM284.566 550.134c7.444-1.072 14.412-1.221 19.712-0.864 2.501 0 5.003 0.566 6.462 0.683 1.549 0.209 2.353 0.328 2.353 0.328s0.119 0.833 0.328 2.353c0.148 1.459 0.683 3.991 0.714 6.462 0.357 5.331 0.209 12.298-0.864 19.712-2.234 14.799-9.32 30.432-20.812 41.628-11.286 11.432-26.919 18.491-41.716 20.755-7.444 1.072-14.383 1.221-19.682 0.894-2.472 0-4.974-0.537-6.462-0.683-1.549-0.209-2.353-0.328-2.353-0.328s-0.119-0.833-0.328-2.353c-0.090-1.4-0.656-3.901-0.656-6.372-0.328-5.297-0.18-12.237 0.894-19.682 2.263-14.769 9.32-30.432 20.755-41.716 11.225-11.494 26.858-18.581 41.658-20.812z" />
<glyph unicode="&#xe9b4;" glyph-name="triangle-exclamation-alt" d="M512 952l-503.977-1008h1007.955l-503.977 1008zM512 901.437l467.428-934.833h-934.857l467.428 934.833zM481.011 209.923c0.972-1.65 2.689-3.052 5.176-4.159s5.673-1.943 9.56-2.487c3.866-0.542 8.702-0.813 14.534-0.813 5.809 0 10.646 0.271 14.534 0.813 3.866 0.542 7.052 1.401 9.539 2.487s4.227 2.487 5.176 4.159 1.447 3.593 1.447 5.809l7.052 395.935c0 3.322-0.566 6.148-1.672 8.499s-3.119 4.362-6.012 6.012c-2.916 1.672-6.804 2.893-11.64 3.751-4.837 0.837-10.986 1.243-18.444 1.243-7.752 0-14.059-0.361-18.896-1.039s-8.725-1.876-11.618-3.526c-2.916-1.672-4.928-3.751-6.035-6.216-1.107-2.487-1.514-5.401-1.243-8.725l7.052-395.935c0.045-2.216 0.52-4.159 1.491-5.809zM551.984 127.129c-1.243 6.216-3.593 11.054-7.052 14.534-3.458 3.458-7.978 5.945-13.494 7.459-5.538 1.514-12.613 2.305-21.179 2.305-8.589 0-15.709-0.769-21.383-2.305s-10.149-4-13.494-7.459c-3.3-3.458-5.606-8.295-6.848-14.534s-1.876-13.9-1.876-23.055c0-9.108 0.633-16.659 1.876-22.603 1.243-5.967 3.526-10.804 6.848-14.534 3.322-3.751 7.82-6.375 13.494-7.91 5.673-1.491 12.794-2.283 21.383-2.283 8.567 0 15.618 0.769 21.179 2.283 5.515 1.514 10.013 4.159 13.494 7.91 3.436 3.73 5.809 8.567 7.052 14.534 1.266 5.945 1.876 13.494 1.876 22.603 0 9.155-0.61 16.839-1.876 23.055z" />
<glyph unicode="&#xe9b5;" glyph-name="arrow-right-alt" horiz-adv-x="1184" d="M610.12 459.816v149.941l-550.003-152.165-32.222-9.554 582.226-161.794v150.018h545.985v23.554h-545.985zM179.074 436.262h407.518v-118.932l-408.25 113.347 0.734 5.586zM178.34 465.376l408.25 113.398v-118.982h-407.518l-0.734 5.586z" />
<glyph unicode="&#xe9b7;" glyph-name="calendar-alt" horiz-adv-x="1136" d="M955.269 944.001h-774.562c-72.88 0-131.978-59.099-131.978-131.978v-115.296h1038.544v115.296c-0.026 72.904-59.099 131.978-132.004 131.978zM49.203 91.231c0-76.782 62.45-139.23 139.23-139.23h759.082c76.782 0 139.23 62.45 139.23 139.23v552.222h-1037.542v-552.222zM69.009 623.646h997.952v-532.415c0-65.852-53.572-119.447-119.447-119.447h-759.055c-65.852 0-119.447 53.572-119.447 119.447v532.415z" />
<glyph unicode="&#xe9ba;" glyph-name="plus" d="M947.836 525.71h-358.127v358.127c0 33.233-26.932 60.164-60.164 60.164h-35.092c-33.233 0-60.164-26.932-60.164-60.164v-358.127h-358.127c-33.233 0-60.164-26.932-60.164-60.164v-35.092c0-33.233 26.932-60.164 60.164-60.164h358.127v-358.127c0-33.233 26.932-60.164 60.164-60.164h35.092c33.233 0 60.164 26.932 60.164 60.164v358.127h358.127c33.233 0 60.164 26.932 60.164 60.164v35.092c0 33.233-26.932 60.164-60.164 60.164z" />
<glyph unicode="&#xe9bb;" glyph-name="check-circle-alt" d="M512 944c-273.5 0-496-222.5-496-496s222.5-496 496-496c273.5 0 496 222.5 496 496s-222.5 496-496 496zM512-28.419c-262.691 0-476.419 213.727-476.419 476.419s213.727 476.419 476.419 476.419c262.691 0 476.419-213.727 476.419-476.419s-213.727-476.419-476.419-476.419zM400.544 372.234l-139.97 139.97-93.039-93.018 233.011-233.011 431.955 431.955-93.018 93.039z" />
<glyph unicode="&#xe9c6;" glyph-name="shopping-cart" d="M135.865 824.364l-100.945 98.696-18.239-18.698 95.852-93.626 184.499-682.020h540.811v26.061h-520.874zM519.524 41.79c0-38.025-30.825-68.85-68.85-68.85s-68.85 30.825-68.85 68.85c0 38.025 30.825 68.85 68.85 68.85s68.85-30.825 68.85-68.85zM793.681 41.79c0-38.025-30.825-68.85-68.85-68.85s-68.85 30.825-68.85 68.85c0 38.025 30.825 68.85 68.85 68.85s68.85-30.825 68.85-68.85zM216.118 723.235l120.63-427.179h509.724l160.846 427.179z" />
<glyph unicode="&#xe9c8;" glyph-name="caret-up" horiz-adv-x="1072" d="M536 908.729l-518.012-921.457h1036.026l-259.007 460.729z" />
<glyph unicode="&#xe9cd;" glyph-name="network-alt" horiz-adv-x="1056" d="M944.701 398.607c-33.445 0-63.523-18.261-79.089-47.238l-227.809 90.207c4.087 13.814 6.401 28.19 6.896 42.926l0.112 6.918c-0.179 26.886-6.424 52.628-18.644 76.662l-3.235 6.087c-10.624 18.935-25.023 35.894-41.936 49.618l158.558 163.522c9.479-4.74 19.833-7.211 30.503-7.211 37.895 0 68.554 30.84 68.554 68.733s-31.154 68.733-69.048 68.733-69.385-30.84-69.385-68.733c0-16.847 4.851-32.907 15.814-45.373l-162.22-164.556c-25.629 14.623-48.271 22.957-93.194 23.069v96.496c22.462 6.896 43.194 24.394 43.194 47.013 0 28.256-16.733 50.382-44.183 50.382-28.819 0-54.964-23.539-54.964-50.382 0-23.585 11.029-43.376 33.49-48.855v-96.654c0-1.325-14.376-3.371-23.090-6.11l-0.966 6.087c4.604 5.728 7.076 12.242 7.076 18.846 0 17.97-13.836 32.053-31.492 32.053-17.52 0-31.784-14.376-31.784-32.053 0-18.98 17.071-34.187 36.164-31.806l1.842-3.371c-11.029-5.571-21.406-12.287-30.997-20.127l-162.355 168.532c12.758 17.229 19.699 38.073 19.699 59.569 0 55.368-45.036 100.404-100.404 100.404s-100.404-45.036-100.404-100.404c0-55.368 45.036-100.404 100.404-100.404 22.889 0 44.721 7.682 62.466 21.833l161.479-167.656c-28.639-31.626-44.295-72.125-44.295-115.095 0-4.245 0.202-8.446 0.517-12.78l0.652-7.076c3.638-31.65 15.836-61.187 35.445-86.096l-172.485-114.982c-12.825 17.588-33.222 28.167-55.436 28.167-37.895 0-68.733-30.84-68.733-68.733s30.84-68.733 68.733-68.733 68.733 30.84 68.733 68.733c0 5.525-0.674 11.006-2.045 16.42l179.291 119.52c28.369-26.437 64.869-42.543 103.796-45.553l7.547-0.427c30.144-1.101 60.804 6.087 87.535 20.597l143.353-180.437c-27.628-23.001-43.823-57.188-43.823-93.374 0-67.003 54.515-121.519 121.519-121.519s121.519 54.515 121.519 121.519-54.515 121.519-121.519 121.519c-19.34 0-38.409-4.672-55.638-13.612l-143.217 180.257c21.967 16.733 39.466 38.342 51.236 63.297l228.236-90.364c-1.168-5.84-1.775-11.814-1.775-17.835 0-49.55 40.296-89.847 89.847-89.847s89.847 40.296 89.847 89.847-40.364 89.825-89.893 89.825zM770.216 897.915c27.044 0 49.057-22.013 49.057-49.057s-22.013-49.057-49.057-49.057c-9.591 0-18.914 2.785-26.933 8.087l-2.426 1.596-2.066 1.73c-11.208 9.367-17.633 23.090-17.633 37.646 0 27.044 22.013 49.057 49.057 49.057zM182.051 798.003l-4.065-4.335c-15.161-14.712-35.13-22.799-56.177-22.799-44.519 0-80.751 36.231-80.751 80.751s36.231 80.751 80.751 80.751c44.519 0 80.751-36.231 80.751-80.751 0-19.744-7.278-38.769-20.507-53.617zM110.128 179.693c-27.044 0-49.057 22.013-49.057 49.057s22.013 49.057 49.057 49.057c18.487 0 35.22-10.265 43.666-26.797l2.246-5.166c2.089-5.593 3.145-11.344 3.145-17.116 0.023-27.022-21.99-49.034-49.057-49.034zM717.881 149.077l1.617 1.123 3.527 2.157c16.061 9.816 34.389 15.004 52.987 15.004 56.177 0 101.865-45.688 101.865-101.865 0-56.155-45.688-101.865-101.865-101.865-56.155 0-101.865 45.688-101.865 101.865 0.023 33.266 16.352 64.51 43.734 83.581zM425.988 805.505c0 16.083 16.42 30.728 34.456 30.728 16.712 0 29.313-13.207 29.313-30.728 0-13.903-23.001-28.684-30.952-30.683l-0.988-0.247-6.019 0.27c-14.488 0.652-25.809 14.106-25.809 30.66zM392.767 666.735c-7.614-1.685-15.274 4.335-15.274 12.084 0 6.941 5.324 12.399 12.129 12.399 6.626 0 11.837-5.436 11.837-12.399 0-2.874-2.045-6.357-5.481-9.321l-3.212-2.763zM625.045 484.996c-0.538-15.768-3.481-31.2-8.715-45.868l-2.246-5.84c-11.478-28.369-31.020-52.404-56.537-69.453l-5.278-3.391c-23.786-14.533-51.146-22.214-79.133-22.214-1.662 0-3.325 0.068-5.413 0.135l-6.491 0.381c-36.702 2.853-71.137 18.98-96.924 45.395l-2.448 2.515-1.955 2.111c-21.114 23.539-34.254 52.538-37.849 83.648l-0.741 6.694c-0.27 3.684-0.696 7.412-0.696 11.164 0 40.925 15.566 79.335 44.699 108.132l3.549 4.335c12.624 11.478 25.023 20.71 40.634 27.381l6.154 4.245v0.832c22.462 3.325 24.888 5.661 32.57 6.604l12.354 1.101v9.074l1.101-9.794c1.191 0.068 6.874 0.112 8.625 0.112 30.166 0 61.142-8.805 84.973-24.124l5.278-3.549c18.508-13.051 34.165-30.345 45.126-49.865l3.032-5.728c10.738-21.137 16.263-43.936 16.42-67.499l-0.090-6.536zM944.701 238.588c-38.702 0-70.171 31.492-70.171 70.194 0 7.121 1.055 14.15 3.145 20.89l0.674 2.202 1.325 3.279c10.805 26.618 36.321 43.823 65.005 43.823 38.702 0 70.171-31.492 70.171-70.171s-31.447-70.215-70.149-70.215z" />
<glyph unicode="&#xe9ce;" glyph-name="eye" horiz-adv-x="1328" d="M1311.111 439.284c-118.57 238.656-372.582 392.867-647.11 392.867s-528.54-154.21-647.080-392.835l-3.381-6.818 3.613-6.644c118.6-219.891 372.525-362.005 646.847-362.005s528.247 142.114 646.877 362.035l3.583 6.614-3.351 6.791zM1275.793 422.997c-116.88-200.423-357.022-329.921-611.792-329.921s-494.912 129.497-611.792 329.921l-5.856 10.054 5.478 10.257c116.707 218.431 356.994 359.615 612.17 359.615s495.466-141.184 612.17-359.615l5.478-10.257-5.856-10.054zM924.191 447.999c0-143.698-116.491-260.191-260.191-260.191s-260.191 116.491-260.191 260.191c0 143.698 116.491 260.191 260.191 260.191s260.191-116.491 260.191-260.191z" />
<glyph unicode="&#xe9d0;" glyph-name="shield-lines-alt" d="M406.284 627.704h402.873v-37.527h-402.873v37.527zM406.284 497.704h402.873v-37.527h-402.873v37.527zM406.284 367.704h402.873v-37.527h-402.873v37.527zM205.497 561.788h133.108v94.281h-133.108v-94.281zM224.26 637.329h95.581v-56.754h-95.581v56.754zM205.497 431.788h133.108v94.281h-133.108v-94.281zM224.26 507.329h95.581v-56.754h-95.581v56.754zM205.497 301.81h133.108v94.281h-133.108v-94.281zM224.26 377.329h95.581v-56.754h-95.581v56.754zM950.939 805.484c-2.319 16.468-14.148 29.966-30.129 34.42l-397.608 110.588c-7.26 2.018-15.077 2.018-22.358 0l-397.608-110.588c-16.004-4.453-27.832-17.975-30.129-34.442-2.319-16.745-55.271-412.197 81.596-609.923 136.958-197.842 338.998-248.311 347.486-250.352 3.178-0.788 6.471-1.182 9.81-1.182s6.656 0.394 9.788 1.16c8.536 2.064 210.598 52.557 347.534 250.375 136.797 197.563 83.938 593.177 81.618 609.945zM853.896 206.23c-132.922-191.996-328.236-240.819-336.539-242.814-3.456-0.835-7.214-0.858-10.739 0-8.257 1.994-203.571 50.794-336.493 242.814-132.76 191.765-80.714 580.211-78.441 596.633 1.276 9.069 7.77 16.49 16.584 18.949l397.608 110.588c1.994 0.556 4.060 0.835 6.123 0.835 2.087 0 4.152-0.279 6.146-0.835l397.608-110.588c8.813-2.459 15.308-9.88 16.584-18.949 2.274-16.421 54.227-405.031-78.441-596.633z" />
<glyph unicode="&#xe9d1;" glyph-name="table-alt" horiz-adv-x="1168" d="M90.484 669.269h225.238v195.869h-225.238v-195.869zM111.89 843.732h182.43v-153.035h-182.43v153.035zM342.142 669.269h225.238v195.869h-225.238v-195.869zM363.545 843.732h182.43v-153.035h-182.43v153.035zM813.768 865.136h-220.53v-195.869h220.53v195.869zM792.364 690.671h-177.696v153.061h177.696v-153.061zM839.625 669.269h225.238v195.869h-225.238v-195.869zM861.029 843.732h182.43v-153.035h-182.43v153.035zM90.484 453.905h225.238v195.869h-225.238v-195.869zM111.89 628.344h182.43v-153.035h-182.43v153.035zM342.142 453.905h225.238v195.869h-225.238v-195.869zM363.545 628.344h182.43v-153.035h-182.43v153.035zM594.357 453.905h219.538v195.869h-219.538v-195.869zM615.761 628.344h176.704v-153.035h-176.704v153.035zM839.625 453.447h225.238v192.052h-225.238v-192.052zM861.029 624.067h182.43v-149.217h-182.43v149.217zM90.484 238.058h225.238v195.869h-225.238v-195.869zM111.89 412.522h182.43v-153.035h-182.43v153.035zM342.142 238.058h225.238v195.869h-225.238v-195.869zM363.545 412.522h182.43v-153.035h-182.43v153.035zM813.768 433.925h-220.53v-195.869h220.53v195.869zM792.364 259.461h-177.696v153.035h177.696v-153.035zM839.625 238.058h225.238v195.869h-225.238v-195.869zM861.029 412.522h182.43v-153.035h-182.43v153.035zM90.484 22.694h225.238v195.869h-225.238v-195.869zM111.89 197.134h182.43v-153.035h-182.43v153.035zM342.142 22.694h225.238v195.869h-225.238v-195.869zM363.545 197.134h182.43v-153.035h-182.43v153.035zM594.357 22.694h219.538v195.869h-219.538v-195.869zM615.761 197.134h176.704v-153.035h-176.704v153.035zM839.625 22.237h225.238v192.052h-225.238v-192.052zM861.029 192.857h182.43v-149.217h-182.43v149.217zM1097.238 940.877h-1026.475c-28.886 0-52.402-22.499-52.402-50.163v-885.427c0-27.665 23.516-50.163 52.402-50.163h1026.475c28.886 0 52.402 22.499 52.402 50.163v885.427c0 27.665-23.516 50.163-52.402 50.163zM1128.21 5.286c0-15.857-13.895-28.759-30.972-28.759h-1026.475c-17.078 0-30.972 12.904-30.972 28.759v885.427c0 15.857 13.895 28.759 30.972 28.759h1026.475c17.078 0 30.972-12.904 30.972-28.759v-885.427z" />
<glyph unicode="&#xe9d6;" glyph-name="power-off" d="M693.733 925.796c-1.537 0.606-3.167 0.909-4.799 0.909-5.405 0-10.11-3.167-12.090-8.2-1.258-3.214-1.187-6.732 0.163-9.901 1.374-3.167 3.914-5.638 7.129-6.895 180.649-71.211 297.403-242.73 297.403-436.983 0-258.92-210.654-469.549-469.549-469.549-258.92 0-469.573 210.654-469.573 469.549 0 183.934 108.275 351.865 275.831 427.852 3.167 1.421 5.592 4.007 6.801 7.268 1.212 3.214 1.095 6.732-0.373 9.947-2.072 4.588-6.709 7.548-11.834 7.548-1.794 0-3.517-0.373-5.218-1.142-176.805-80.156-291.067-257.358-291.067-451.472 0-273.176 222.254-495.428 495.452-495.428 273.176 0 495.428 222.254 495.428 495.428-0.024 204.922-123.18 385.899-313.707 461.070zM497.103 852.791h25.88v-399.99h-25.88v399.99z" />
<glyph unicode="&#xe9e4;" glyph-name="stop" d="M915.539-32.002h-807.077c-42.154 0-76.463 34.305-76.463 76.463v807.077c0 42.154 34.305 76.463 76.463 76.463h807.077c42.154 0 76.463-34.305 76.463-76.463v-807.1c0-42.154-34.305-76.435-76.463-76.435z" />
<glyph unicode="&#xe9e5;" glyph-name="stop-alt" d="M915.539-32.002h-807.077c-42.154 0-76.463 34.305-76.463 76.463v807.077c0 42.154 34.305 76.463 76.463 76.463h807.077c42.154 0 76.463-34.305 76.463-76.463v-807.1c0-42.154-34.305-76.435-76.463-76.435zM108.467 851.533v-807.1h807.127l-0.051 807.1h-807.077z" />
</font>
</defs>
</svg>
